<svg width="36" height="37" viewBox="0 0 36 37" fill="none" xmlns="http://www.w3.org/2000/svg">
<path d="M28.5 9.18945H16.5L13.5 6.18945H6C4.35 6.18945 3 7.53945 3 9.18945V27.1895C3 28.8395 4.35 30.1895 6 30.1895H29.25C30.525 30.1895 31.5 29.2145 31.5 27.9395V12.1895C31.5 10.5395 30.15 9.18945 28.5 9.18945Z" fill="#7B61FF"/>
<path d="M31.65 13.6895H11.475C10.05 13.6895 8.775 14.7395 8.55 16.1645L6 30.1895H29.775C31.2 30.1895 32.475 29.1395 32.7 27.7145L34.575 17.2145C34.95 15.4145 33.525 13.6895 31.65 13.6895Z" fill="#9386D5"/>
</svg>
