<svg width="134" height="22" viewBox="0 0 134 22" fill="none" xmlns="http://www.w3.org/2000/svg">
<path d="M121.981 4.21362V4.29544C121.981 4.88631 121.503 5.36355 120.913 5.36355H112.495C111.904 5.36355 111.427 4.88631 111.427 4.29544V4.21362C111.427 3.62275 111.904 3.14551 112.495 3.14551H120.913C121.503 3.14551 121.981 3.62275 121.981 4.21362ZM111.427 10.9723V10.9178C111.427 10.3269 111.904 9.84965 112.495 9.84965H118.322C118.913 9.84965 119.39 10.3269 119.39 10.9178V10.9723C119.39 11.5632 118.913 12.0404 118.322 12.0404H112.495C111.904 12.0404 111.427 11.5632 111.427 10.9723ZM113.649 16.4902H120.913C121.503 16.4902 121.981 16.9674 121.981 17.5583V17.6401C121.981 18.231 121.503 18.7082 120.913 18.7082H112.495C111.904 18.7082 111.427 18.231 111.427 17.6401V17.5492C111.427 16.9583 111.904 16.4811 112.495 16.4811H113.649V16.4902V16.4902Z" fill="url(#paint0_linear_1303_12810)"/>
<path d="M48.2002 8.12668C48.2002 11.0447 46.2548 13.34 42.9641 13.34H40.787C40.1734 13.34 39.6734 13.84 39.6734 14.4536V17.6034C39.6734 18.217 39.1735 18.7169 38.5599 18.7169C37.9463 18.7169 37.4463 18.217 37.4463 17.6034V12.2264C37.4463 11.6128 37.9463 11.1129 38.5599 11.1129H42.9869C44.6095 11.1129 45.9776 10.2766 45.9776 8.26304C45.9776 6.24953 44.4731 5.36776 42.8505 5.36776H38.5644C37.9508 5.36776 37.4508 4.86779 37.4508 4.25419C37.4508 3.64059 37.9508 3.14062 38.5644 3.14062H42.2733C46.3276 3.14062 48.2047 5.18141 48.2047 8.12214L48.2002 8.12668Z" fill="#44505F"/>
<path d="M51.8724 3.14062C52.486 3.14062 52.9859 3.64059 52.9859 4.25419V17.6034C52.9859 18.217 52.486 18.7169 51.8724 18.7169C51.2588 18.7169 50.7588 18.217 50.7588 17.6034V4.25419C50.7588 3.64059 51.2588 3.14062 51.8724 3.14062V3.14062ZM54.254 17.5988C54.254 16.9852 54.754 16.4853 55.3676 16.4853H58.1765C58.7901 16.4853 59.2901 16.9852 59.2901 17.5988C59.2901 18.2124 58.7901 18.7124 58.1765 18.7124H55.3676C54.754 18.7124 54.254 18.2124 54.254 17.5988Z" fill="#44505F"/>
<path d="M108.75 17.6314V4.31857C108.75 3.83224 108.463 3.36408 108 3.21864C107.232 2.9732 106.523 3.54135 106.523 4.27312V13.0408C106.523 13.3544 106.313 13.6271 106.009 13.7089C105.754 13.7771 105.486 13.6953 105.314 13.4998L97.4822 4.70037C97.1595 4.33675 96.6323 4.17767 96.1914 4.37766C95.4551 4.70491 95.3051 5.60031 95.7914 6.14573L106.736 18.4404C106.882 18.6404 107.086 18.7859 107.332 18.8586C107.354 18.8631 107.373 18.8722 107.391 18.8768C107.418 18.8813 107.45 18.8859 107.477 18.8904C107.527 18.8995 107.577 18.904 107.627 18.904H107.636C107.636 18.904 107.65 18.904 107.654 18.904C107.918 18.904 108.177 18.8131 108.391 18.6268C108.682 18.3677 108.804 17.9905 108.75 17.6314V17.6314Z" fill="#44505F"/>
<path d="M97.6045 9.55894C96.9318 8.88171 95.7773 9.35895 95.7773 10.3134V17.6448C95.7773 18.2357 96.2546 18.7129 96.8455 18.7129H96.9273C97.5181 18.7129 97.9954 18.2357 97.9954 17.6448V10.3953C97.9954 10.1134 97.8818 9.84074 97.6818 9.64075L97.6 9.55439L97.6045 9.55894Z" fill="#44505F"/>
<path d="M123.623 4.25908V4.21362C123.623 3.62275 124.1 3.14551 124.691 3.14551H132.932C133.522 3.14551 134 3.62275 134 4.21362V4.25908C134 4.84995 133.522 5.32719 132.932 5.32719H124.691C124.1 5.32719 123.623 4.84995 123.623 4.25908ZM127.7 17.6446V7.66796C127.7 7.07709 128.177 6.59984 128.768 6.59984H128.855C129.445 6.59984 129.923 7.07709 129.923 7.66796V17.6446C129.923 18.2355 129.445 18.7127 128.855 18.7127H128.768C128.177 18.7127 127.7 18.2355 127.7 17.6446Z" fill="#44505F"/>
<path d="M67.441 2.94531C63.0321 2.94531 59.4551 6.51782 59.4551 10.9312C59.4551 15.3446 63.0276 18.9171 67.441 18.9171C71.8543 18.9171 75.4268 15.3446 75.4268 10.9312C75.4268 6.51782 71.8543 2.94531 67.441 2.94531V2.94531ZM67.441 16.6854C64.2593 16.6854 61.6822 14.1083 61.6822 10.9266C61.6822 7.74502 64.2593 5.1679 67.441 5.1679C70.6226 5.1679 73.1997 7.74502 73.1997 10.9266C73.1997 14.1083 70.6226 16.6854 67.441 16.6854Z" fill="#44505F"/>
<path d="M85.315 2.94531C80.9062 2.94531 77.3291 6.51782 77.3291 10.9312C77.3291 15.3446 80.9016 18.9171 85.315 18.9171C89.7283 18.9171 93.3009 15.3446 93.3009 10.9312C93.3009 6.51782 89.7283 2.94531 85.315 2.94531V2.94531ZM85.315 16.6854C82.1334 16.6854 79.5562 14.1083 79.5562 10.9266C79.5562 7.74502 82.1334 5.1679 85.315 5.1679C88.4966 5.1679 91.0737 7.74502 91.0737 10.9266C91.0737 14.1083 88.4966 16.6854 85.315 16.6854Z" fill="#44505F"/>
<path d="M29.6482 9.39034H26.4348C25.6712 4.08612 21.1214 0 15.6036 0C10.0858 0 5.53603 4.08612 4.77698 9.39034H1.559C0.695412 9.39034 0 10.0903 0 10.9493C0 11.8084 0.699957 12.5083 1.559 12.5083H4.77244C5.53148 17.8171 10.0812 21.8987 15.5991 21.8987C21.1169 21.8987 25.6666 17.8126 26.4257 12.5083H29.6391C30.5027 12.5083 31.1981 11.8084 31.1981 10.9493C31.1981 10.0903 30.4981 9.39034 29.6391 9.39034H29.6482ZM15.6036 18.7534C11.2948 18.7534 7.79953 15.2582 7.79953 10.9539C7.79953 6.6496 11.2948 3.14981 15.6036 3.14981C19.3761 3.14981 22.5259 5.83146 23.2486 9.39034H18.6443C17.7807 9.39034 17.0853 10.0903 17.0853 10.9493C17.0853 11.8084 17.7853 12.5083 18.6443 12.5083H23.2486C22.5259 16.0672 19.3761 18.7489 15.6036 18.7489V18.7534Z" fill="url(#paint1_linear_1303_12810)"/>
<defs>
<linearGradient id="paint0_linear_1303_12810" x1="108.727" y1="2.95916" x2="125.967" y2="20.1945" gradientUnits="userSpaceOnUse">
<stop stop-color="#25C5F5"/>
<stop offset="1" stop-color="#B635F5"/>
</linearGradient>
<linearGradient id="paint1_linear_1303_12810" x1="7.7268" y1="3.07254" x2="23.4349" y2="18.7852" gradientUnits="userSpaceOnUse">
<stop stop-color="#25C5F5"/>
<stop offset="1" stop-color="#B635F5"/>
</linearGradient>
</defs>
</svg>
