<svg width="41" height="29" viewBox="0 0 41 29" fill="none" xmlns="http://www.w3.org/2000/svg">
<path d="M38.9589 12.3111H34.8189C33.8351 5.35705 27.9735 0 20.8646 0C13.7557 0 7.89405 5.35705 6.91613 12.3111H2.77025C1.65765 12.3111 0.761719 13.2288 0.761719 14.355C0.761719 15.4812 1.66351 16.3989 2.77025 16.3989H6.91028C7.88819 23.3589 13.7498 28.71 20.8587 28.71C27.9676 28.71 33.8293 23.3529 34.8072 16.3989H38.9472C40.0598 16.3989 40.9557 15.4812 40.9557 14.355C40.9557 13.2288 40.0539 12.3111 38.9472 12.3111H38.9589ZM20.8646 24.5864C15.3133 24.5864 10.8102 20.004 10.8102 14.361C10.8102 8.71788 15.3133 4.12952 20.8646 4.12952C25.7249 4.12952 29.7829 7.64527 30.714 12.3111H24.7821C23.6695 12.3111 22.7736 13.2288 22.7736 14.355C22.7736 15.4812 23.6753 16.3989 24.7821 16.3989H30.714C29.7829 21.0647 25.7249 24.5805 20.8646 24.5805V24.5864Z" fill="url(#paint0_linear_1201_12692)"/>
<defs>
<linearGradient id="paint0_linear_1201_12692" x1="10.7165" y1="4.02822" x2="31.3075" y2="24.2686" gradientUnits="userSpaceOnUse">
<stop stop-color="#25C5F5"/>
<stop offset="1" stop-color="#B635F5"/>
</linearGradient>
</defs>
</svg>
