<svg width="117" height="35" viewBox="0 0 117 35" fill="none" xmlns="http://www.w3.org/2000/svg">
<path fill-rule="evenodd" clip-rule="evenodd" d="M13.9778 0C6.25807 0 0 6.25806 0 13.9778C0 21.6975 6.25807 27.9556 13.9778 27.9556H17H25.5L32.3356 34.0317C32.9805 34.6049 34 34.1471 34 33.2843V1C34 0.447715 33.5523 0 33 0H13.9778ZM12.352 15.2268C12.352 14.7453 11.9549 14.355 11.4651 14.355C10.9752 14.355 10.5781 14.7453 10.5781 15.2268C10.5781 18.9181 13.6226 21.9105 17.3781 21.9105C21.1336 21.9105 24.1781 18.9181 24.1781 15.2268C24.1781 14.7453 23.781 14.355 23.2911 14.355C22.8013 14.355 22.4042 14.7453 22.4042 15.2268C22.4042 17.9551 20.1539 20.1669 17.3781 20.1669C14.6023 20.1669 12.352 17.9551 12.352 15.2268Z" fill="#76F68A"/>
<path d="M45.385 26.5493H43V11.8873H45.385V13.1287C45.7043 12.6856 46.0953 12.3272 46.558 12.0535C47.0272 11.7733 47.5745 11.6332 48.2001 11.6332C48.9169 11.6332 49.5849 11.7668 50.2039 12.034C50.823 12.3011 51.3671 12.6726 51.8363 13.1483C52.312 13.6175 52.6802 14.1616 52.9408 14.7806C53.208 15.3997 53.3416 16.0644 53.3416 16.7747C53.3416 17.485 53.208 18.1529 52.9408 18.7785C52.6802 19.4041 52.312 19.9547 51.8363 20.4304C51.3671 20.8996 50.823 21.2678 50.2039 21.5349C49.5849 21.8021 48.9169 21.9357 48.2001 21.9357C47.5745 21.9357 47.0272 21.7989 46.558 21.5252C46.0953 21.245 45.7043 20.8833 45.385 20.4402V26.5493ZM48.1708 13.9302C47.6756 13.9302 47.2324 14.0606 46.8414 14.3212C46.4505 14.5754 46.1442 14.9175 45.9226 15.3476C45.7011 15.7777 45.5903 16.2534 45.5903 16.7747C45.5903 17.296 45.7011 17.7749 45.9226 18.2115C46.1442 18.6416 46.4505 18.987 46.8414 19.2477C47.2324 19.5018 47.6756 19.6289 48.1708 19.6289C48.6726 19.6289 49.132 19.5018 49.549 19.2477C49.9661 18.9935 50.2984 18.6514 50.546 18.2213C50.7937 17.7847 50.9175 17.3025 50.9175 16.7747C50.9175 16.2534 50.7937 15.7777 50.546 15.3476C50.2984 14.9175 49.9661 14.5754 49.549 14.3212C49.1385 14.0606 48.6791 13.9302 48.1708 13.9302Z" fill="white"/>
<path d="M56.4261 21.662V7H58.8111V21.662H56.4261Z" fill="white"/>
<path d="M66.8953 21.9161C65.996 21.9161 65.1749 21.6848 64.432 21.2221C63.6957 20.7595 63.1059 20.1404 62.6628 19.365C62.2262 18.583 62.0079 17.7196 62.0079 16.7747C62.0079 16.0579 62.135 15.3899 62.3891 14.7709C62.6433 14.1453 62.9919 13.5979 63.435 13.1287C63.8847 12.653 64.406 12.2816 64.999 12.0144C65.592 11.7472 66.2241 11.6136 66.8953 11.6136C67.7945 11.6136 68.6123 11.845 69.3487 12.3076C70.0916 12.7703 70.6813 13.3926 71.1179 14.1746C71.561 14.9566 71.7826 15.8233 71.7826 16.7747C71.7826 17.485 71.6555 18.1496 71.4014 18.7687C71.1472 19.3878 70.7953 19.9351 70.3457 20.4109C69.9026 20.88 69.3845 21.2482 68.7915 21.5154C68.2051 21.7826 67.573 21.9161 66.8953 21.9161ZM66.8953 19.5311C67.371 19.5311 67.7978 19.4041 68.1757 19.1499C68.5537 18.8958 68.8502 18.5602 69.0652 18.1431C69.2868 17.7261 69.3976 17.2699 69.3976 16.7747C69.3976 16.2664 69.2835 15.8037 69.0555 15.3867C68.8339 14.9631 68.5309 14.6275 68.1464 14.3799C67.7685 14.1257 67.3514 13.9987 66.8953 13.9987C66.4261 13.9987 66.0025 14.1257 65.6245 14.3799C65.2466 14.634 64.9468 14.9729 64.7253 15.3964C64.5037 15.82 64.3929 16.2794 64.3929 16.7747C64.3929 17.2895 64.507 17.7554 64.735 18.1724C64.9631 18.5895 65.2661 18.9218 65.6441 19.1695C66.0286 19.4106 66.4456 19.5311 66.8953 19.5311Z" fill="white"/>
<path d="M79.012 21.9161C78.1128 21.9161 77.2917 21.6848 76.5488 21.2221C75.8125 20.7595 75.2227 20.1404 74.7796 19.365C74.343 18.583 74.1247 17.7196 74.1247 16.7747C74.1247 16.0579 74.2518 15.3899 74.5059 14.7709C74.76 14.1453 75.1087 13.5979 75.5518 13.1287C76.0014 12.653 76.5227 12.2816 77.1157 12.0144C77.7087 11.7472 78.3408 11.6136 79.012 11.6136C79.9113 11.6136 80.7291 11.845 81.4655 12.3076C82.2083 12.7703 82.7981 13.3926 83.2347 14.1746C83.6778 14.9566 83.8994 15.8233 83.8994 16.7747C83.8994 17.485 83.7723 18.1496 83.5181 18.7687C83.264 19.3878 82.9121 19.9351 82.4625 20.4109C82.0194 20.88 81.5013 21.2482 80.9083 21.5154C80.3218 21.7826 79.6897 21.9161 79.012 21.9161ZM79.012 19.5311C79.4877 19.5311 79.9146 19.4041 80.2925 19.1499C80.6705 18.8958 80.967 18.5602 81.182 18.1431C81.4036 17.7261 81.5143 17.2699 81.5143 16.7747C81.5143 16.2664 81.4003 15.8037 81.1722 15.3867C80.9507 14.9631 80.6477 14.6275 80.2632 14.3799C79.8852 14.1257 79.4682 13.9987 79.012 13.9987C78.5428 13.9987 78.1193 14.1257 77.7413 14.3799C77.3634 14.634 77.0636 14.9729 76.842 15.3964C76.6205 15.82 76.5097 16.2794 76.5097 16.7747C76.5097 17.2895 76.6237 17.7554 76.8518 18.1724C77.0799 18.5895 77.3829 18.9218 77.7609 19.1695C78.1453 19.4106 78.5624 19.5311 79.012 19.5311Z" fill="white"/>
<path d="M96.1148 16.6085V21.662H93.7298V16.6476C93.7298 16.1458 93.6255 15.6897 93.417 15.2791C93.2085 14.8621 92.9185 14.5298 92.547 14.2821C92.1821 14.0345 91.7586 13.9107 91.2763 13.9107C90.8072 13.9107 90.3999 14.0345 90.0545 14.2821C89.7091 14.5298 89.442 14.8621 89.253 15.2791C89.0705 15.6897 88.9793 16.1458 88.9793 16.6476V21.662H86.5943V11.8873H88.9793V13.0407C89.3051 12.6041 89.6928 12.2588 90.1425 12.0046C90.5986 11.744 91.1134 11.6136 91.6869 11.6136C92.5861 11.6136 93.3649 11.8417 94.023 12.2979C94.6877 12.7475 95.1992 13.3503 95.5576 14.1062C95.9226 14.8621 96.1083 15.6962 96.1148 16.6085Z" fill="white"/>
<path d="M103.589 21.9161C102.69 21.9161 101.869 21.6848 101.126 21.2221C100.39 20.7595 99.7999 20.1372 99.3568 19.3552C98.9202 18.5732 98.7019 17.7098 98.7019 16.7649C98.7019 16.0546 98.829 15.3899 99.0831 14.7709C99.3372 14.1453 99.6859 13.5979 100.129 13.1287C100.579 12.653 101.1 12.2816 101.693 12.0144C102.286 11.7472 102.918 11.6136 103.589 11.6136C104.352 11.6136 105.049 11.7766 105.681 12.1024C106.32 12.4217 106.86 12.8615 107.304 13.422C107.747 13.9824 108.069 14.621 108.271 15.3378C108.473 16.0546 108.519 16.804 108.408 17.586H101.263C101.354 17.9509 101.504 18.28 101.712 18.5732C101.921 18.8599 102.185 19.0913 102.504 19.2672C102.824 19.4366 103.185 19.5246 103.589 19.5311C104.006 19.5376 104.384 19.4399 104.723 19.2379C105.068 19.0294 105.355 18.7492 105.583 18.3973L108.017 18.9642C107.62 19.8309 107.027 20.5412 106.238 21.0951C105.45 21.6425 104.567 21.9161 103.589 21.9161ZM101.185 15.7972H105.994C105.922 15.4062 105.769 15.0543 105.534 14.7415C105.306 14.4222 105.023 14.1681 104.684 13.9791C104.345 13.7901 103.98 13.6957 103.589 13.6957C103.198 13.6957 102.837 13.7901 102.504 13.9791C102.172 14.1616 101.888 14.4125 101.654 14.7318C101.426 15.0446 101.269 15.3997 101.185 15.7972Z" fill="white"/>
<path d="M116.721 14.2724H114.824V21.662H112.439V14.2724H110.993V11.8873H112.439V8.81809H114.824V11.8873H116.721V14.2724Z" fill="white"/>
</svg>
