<svg width="35" height="36" viewBox="0 0 35 36" fill="none" xmlns="http://www.w3.org/2000/svg">
<path fill-rule="evenodd" clip-rule="evenodd" d="M14.3889 0C6.44212 0 0 6.44212 0 14.3889C0 22.3356 6.44212 28.7778 14.3889 28.7778H17.5H26.25L33.3356 35.0761C33.9805 35.6494 35 35.1916 35 34.3287V1C35 0.447715 34.5523 0 34 0H14.3889ZM12.7146 15.6744C12.7146 15.1787 12.3058 14.7769 11.8016 14.7769C11.2973 14.7769 10.8885 15.1787 10.8885 15.6744C10.8885 19.4743 14.0225 22.5547 17.8885 22.5547C21.7545 22.5547 24.8885 19.4743 24.8885 15.6744C24.8885 15.1787 24.4797 14.7769 23.9755 14.7769C23.4712 14.7769 23.0624 15.1787 23.0624 15.6744C23.0624 18.483 20.746 20.7599 17.8885 20.7599C15.0311 20.7599 12.7146 18.483 12.7146 15.6744Z" fill="#76F68A"/>
</svg>
