<svg width="16" height="15" viewBox="0 0 16 15" fill="none" xmlns="http://www.w3.org/2000/svg">
<path fill-rule="evenodd" clip-rule="evenodd" d="M0.394763 3.8321C0.194 3.62981 0.277174 3.21802 0.580536 2.91235L2.92116 0.553905C3.22452 0.248232 3.63319 0.164425 3.83396 0.366717C4.03472 0.569009 3.95155 0.980796 3.64818 1.28647L1.30756 3.64491C1.0042 3.95059 0.595526 4.03439 0.394763 3.8321Z" fill="#1A2032"/>
<path fill-rule="evenodd" clip-rule="evenodd" d="M0.361818 8.0369C0.161992 7.83368 0.247057 7.4223 0.551816 7.11804L7.12614 0.554526C7.4309 0.250268 7.83995 0.168357 8.03978 0.371574C8.2396 0.57479 8.15454 0.98618 7.84978 1.29044L1.27545 7.85395C0.970694 8.15821 0.561645 8.24012 0.361818 8.0369Z" fill="#1A2032"/>
<path fill-rule="evenodd" clip-rule="evenodd" d="M0.427966 12.2413C0.227204 12.039 0.310377 11.6272 0.613739 11.3215L11.2922 0.561722C11.5956 0.256049 12.0043 0.172243 12.205 0.374534C12.4058 0.576826 12.3226 0.988613 12.0192 1.29429L1.34077 12.0541C1.0374 12.3598 0.628729 12.4436 0.427966 12.2413Z" fill="#1A2032"/>
<path fill-rule="evenodd" clip-rule="evenodd" d="M3.13961 13.6283C2.93954 13.4253 3.0241 13.0138 3.32849 12.7091L12.6834 3.34655C12.9878 3.04192 13.3968 2.9595 13.5969 3.16247C13.7969 3.36544 13.7124 3.77694 13.408 4.08157L4.05303 13.4442C3.74864 13.7488 3.33969 13.8312 3.13961 13.6283Z" fill="#1A2032"/>
<path fill-rule="evenodd" clip-rule="evenodd" d="M7.37719 13.6339C7.17642 13.4316 7.2596 13.0198 7.56296 12.7141L12.6829 7.55521C12.9862 7.24954 13.3949 7.16573 13.5957 7.36802C13.7964 7.57031 13.7133 7.9821 13.4099 8.28777L8.28998 13.4467C7.98662 13.7523 7.57795 13.8362 7.37719 13.6339Z" fill="#1A2032"/>
<path fill-rule="evenodd" clip-rule="evenodd" d="M11.5213 13.6253C11.324 13.4197 11.4141 13.0094 11.7226 12.7089L12.7249 11.7325C13.0334 11.4321 13.4434 11.3552 13.6407 11.5609C13.838 11.7666 13.7479 12.1768 13.4395 12.4773L12.4371 13.4537C12.1286 13.7541 11.7186 13.831 11.5213 13.6253Z" fill="#1A2032"/>
<rect x="4" y="3" width="11" height="11" rx="2" fill="white"/>
<path d="M4 5.20002C4 4.61654 4.23179 4.05696 4.64437 3.64437C5.05696 3.23179 5.61654 3 6.20002 3H12.8001C13.3836 3 13.9432 3.23179 14.3557 3.64437C14.7683 4.05696 15.0001 4.61654 15.0001 5.20002V11.8001C15.0001 12.3836 14.7683 12.9432 14.3557 13.3557C13.9432 13.7683 13.3836 14.0001 12.8001 14.0001H6.20002C5.61654 14.0001 5.05696 13.7683 4.64437 13.3557C4.23179 12.9432 4 12.3836 4 11.8001V5.20002Z" stroke="#1A2032" stroke-linecap="round" stroke-linejoin="round"/>
<path d="M7.57619 7.94925C8.33559 7.94925 8.9512 7.33363 8.9512 6.57423C8.9512 5.81483 8.33559 5.19922 7.57619 5.19922C6.81679 5.19922 6.20117 5.81483 6.20117 6.57423C6.20117 7.33363 6.81679 7.94925 7.57619 7.94925Z" stroke="#1A2032" stroke-linecap="round" stroke-linejoin="round"/>
<path d="M10.8905 8.84142L6.20117 13.9999H12.8744C13.4385 13.9999 13.9794 13.7758 14.3783 13.377C14.7772 12.9781 15.0013 12.4371 15.0013 11.8731V11.7999C15.0013 11.5436 14.905 11.4452 14.7318 11.2554L12.5152 8.83812C12.4119 8.72544 12.2863 8.63552 12.1463 8.57411C12.0063 8.51269 11.855 8.48114 11.7022 8.48145C11.5493 8.48176 11.3981 8.51393 11.2584 8.57591C11.1187 8.63789 10.9934 8.72832 10.8905 8.84142V8.84142Z" stroke="#1A2032" stroke-linecap="round" stroke-linejoin="round"/>
</svg>
