<svg width="14" height="13" viewBox="0 0 14 13" fill="none" xmlns="http://www.w3.org/2000/svg">
<path d="M3.10938 12.3594C4.27435 12.3594 5.21875 11.415 5.21875 10.25C5.21875 9.08502 4.27435 8.14062 3.10938 8.14062C1.9444 8.14062 1 9.08502 1 10.25C1 11.415 1.9444 12.3594 3.10938 12.3594Z" stroke="#1A2032" stroke-linecap="round" stroke-linejoin="round"/>
<path d="M10.6094 11.4219C11.7744 11.4219 12.7188 10.4775 12.7188 9.3125C12.7188 8.14752 11.7744 7.20312 10.6094 7.20312C9.4444 7.20312 8.5 8.14752 8.5 9.3125C8.5 10.4775 9.4444 11.4219 10.6094 11.4219Z" stroke="#1A2032" stroke-linecap="round" stroke-linejoin="round"/>
<path d="M5.21875 10.25V1.57812L12.7188 0.640625V9.3125" stroke="#1A2032" stroke-linecap="round" stroke-linejoin="round"/>
</svg>
