<svg width="18" height="16" viewBox="0 0 18 16" fill="none" xmlns="http://www.w3.org/2000/svg">
<path fill-rule="evenodd" clip-rule="evenodd" d="M0.394763 3.8321C0.194 3.62981 0.277174 3.21802 0.580536 2.91235L2.92116 0.553905C3.22452 0.248232 3.63319 0.164425 3.83396 0.366717C4.03472 0.569009 3.95155 0.980796 3.64818 1.28647L1.30756 3.64491C1.0042 3.95059 0.595526 4.03439 0.394763 3.8321Z" fill="#1A2032"/>
<path fill-rule="evenodd" clip-rule="evenodd" d="M0.361818 8.0369C0.161992 7.83368 0.247057 7.4223 0.551816 7.11804L7.12614 0.554526C7.4309 0.250268 7.83995 0.168357 8.03978 0.371574C8.2396 0.57479 8.15454 0.98618 7.84978 1.29044L1.27545 7.85395C0.970694 8.15821 0.561645 8.24012 0.361818 8.0369Z" fill="#1A2032"/>
<path fill-rule="evenodd" clip-rule="evenodd" d="M0.427966 12.2413C0.227204 12.039 0.310377 11.6272 0.613739 11.3215L11.2922 0.561722C11.5956 0.256049 12.0043 0.172243 12.205 0.374534C12.4058 0.576826 12.3226 0.988613 12.0192 1.29429L1.34077 12.0541C1.0374 12.3598 0.628729 12.4436 0.427966 12.2413Z" fill="#1A2032"/>
<path fill-rule="evenodd" clip-rule="evenodd" d="M3.13961 13.6283C2.93954 13.4253 3.0241 13.0138 3.32849 12.7091L12.6834 3.34655C12.9878 3.04192 13.3968 2.9595 13.5969 3.16247C13.7969 3.36544 13.7124 3.77694 13.408 4.08157L4.05303 13.4442C3.74864 13.7488 3.33969 13.8312 3.13961 13.6283Z" fill="#1A2032"/>
<path fill-rule="evenodd" clip-rule="evenodd" d="M7.37719 13.6339C7.17642 13.4316 7.2596 13.0198 7.56296 12.7141L12.6829 7.55521C12.9862 7.24954 13.3949 7.16573 13.5957 7.36802C13.7964 7.57031 13.7133 7.9821 13.4099 8.28777L8.28998 13.4467C7.98662 13.7523 7.57795 13.8362 7.37719 13.6339Z" fill="#1A2032"/>
<path fill-rule="evenodd" clip-rule="evenodd" d="M11.5213 13.6253C11.324 13.4197 11.4141 13.0094 11.7226 12.7089L12.7249 11.7325C13.0334 11.4321 13.4434 11.3552 13.6407 11.5609C13.838 11.7666 13.7479 12.1768 13.4395 12.4773L12.4371 13.4537C12.1286 13.7541 11.7186 13.831 11.5213 13.6253Z" fill="#1A2032"/>
<rect x="4.07129" y="4.21436" width="9.64286" height="9.64286" rx="2" fill="white"/>
<path d="M4.875 5.6875C4.875 5.31454 5.02316 4.95685 5.28688 4.69313C5.5506 4.42941 5.90829 4.28125 6.28125 4.28125H11.9062C12.2792 4.28125 12.6369 4.42941 12.9006 4.69313C13.1643 4.95685 13.3125 5.31454 13.3125 5.6875V11.3125C13.3125 11.6855 13.1643 12.0431 12.9006 12.3069C12.6369 12.5706 12.2792 12.7188 11.9062 12.7188H6.28125C5.90829 12.7188 5.5506 12.5706 5.28688 12.3069C5.02316 12.0431 4.875 11.6855 4.875 11.3125V5.6875ZM6.28125 3.34375C5.65965 3.34375 5.06351 3.59068 4.62397 4.03022C4.18443 4.46976 3.9375 5.0659 3.9375 5.6875V11.3125C3.9375 11.9341 4.18443 12.5302 4.62397 12.9698C5.06351 13.4093 5.65965 13.6562 6.28125 13.6562H11.9062C12.214 13.6562 12.5188 13.5956 12.8032 13.4778C13.0875 13.3601 13.3459 13.1874 13.5635 12.9698C13.7812 12.7521 13.9538 12.4938 14.0716 12.2094C14.1894 11.9251 14.25 11.6203 14.25 11.3125V10.8438L15.9375 12.1094C16.042 12.1877 16.1662 12.2354 16.2962 12.2472C16.4263 12.2589 16.557 12.2342 16.6738 12.1758C16.7906 12.1174 16.8888 12.0276 16.9575 11.9165C17.0261 11.8055 17.0625 11.6775 17.0625 11.5469V5.45781C17.0625 5.32723 17.0261 5.19923 16.9575 5.08816C16.8888 4.97708 16.7906 4.88731 16.6738 4.82892C16.557 4.77052 16.4263 4.7458 16.2962 4.75753C16.1662 4.76926 16.042 4.81697 15.9375 4.89531L14.25 6.15625V5.6875C14.25 5.37971 14.1894 5.07494 14.0716 4.79059C13.9538 4.50623 13.7812 4.24786 13.5635 4.03022C13.3459 3.81258 13.0875 3.63994 12.8032 3.52216C12.5188 3.40437 12.214 3.34375 11.9062 3.34375H6.28125ZM14.25 7.32812L16.125 5.92563V11.0781L14.25 9.67188V7.32812Z" fill="#1A2032"/>
</svg>
