<svg width="18" height="13" viewBox="0 0 18 13" fill="none" xmlns="http://www.w3.org/2000/svg">
<path d="M2.75 3.75C2.75 3.41848 2.8817 3.10054 3.11612 2.86612C3.35054 2.6317 3.66848 2.5 4 2.5H5.25C5.41576 2.5 5.57473 2.56585 5.69194 2.68306C5.80915 2.80027 5.875 2.95924 5.875 3.125C5.875 3.29076 5.80915 3.44973 5.69194 3.56694C5.57473 3.68415 5.41576 3.75 5.25 3.75H4V5C4 5.16576 3.93415 5.32473 3.81694 5.44194C3.69973 5.55915 3.54076 5.625 3.375 5.625C3.20924 5.625 3.05027 5.55915 2.93306 5.44194C2.81585 5.32473 2.75 5.16576 2.75 5V3.75ZM15.25 3.75C15.25 3.41848 15.1183 3.10054 14.8839 2.86612C14.6495 2.6317 14.3315 2.5 14 2.5H12.75C12.5842 2.5 12.4253 2.56585 12.3081 2.68306C12.1908 2.80027 12.125 2.95924 12.125 3.125C12.125 3.29076 12.1908 3.44973 12.3081 3.56694C12.4253 3.68415 12.5842 3.75 12.75 3.75H14V5C14 5.16576 14.0658 5.32473 14.1831 5.44194C14.3003 5.55915 14.4592 5.625 14.625 5.625C14.7908 5.625 14.9497 5.55915 15.0669 5.44194C15.1842 5.32473 15.25 5.16576 15.25 5V3.75ZM15.25 8.75C15.25 9.08152 15.1183 9.39946 14.8839 9.63388C14.6495 9.8683 14.3315 10 14 10H12.75C12.5842 10 12.4253 9.93415 12.3081 9.81694C12.1908 9.69973 12.125 9.54076 12.125 9.375C12.125 9.20924 12.1908 9.05027 12.3081 8.93306C12.4253 8.81585 12.5842 8.75 12.75 8.75H14V7.5C14 7.33424 14.0658 7.17527 14.1831 7.05806C14.3003 6.94085 14.4592 6.875 14.625 6.875C14.7908 6.875 14.9497 6.94085 15.0669 7.05806C15.1842 7.17527 15.25 7.33424 15.25 7.5V8.75ZM2.75 8.75C2.75 9.08152 2.8817 9.39946 3.11612 9.63388C3.35054 9.8683 3.66848 10 4 10H5.25C5.41576 10 5.57473 9.93415 5.69194 9.81694C5.80915 9.69973 5.875 9.54076 5.875 9.375C5.875 9.20924 5.80915 9.05027 5.69194 8.93306C5.57473 8.81585 5.41576 8.75 5.25 8.75H4V7.5C4 7.33424 3.93415 7.17527 3.81694 7.05806C3.69973 6.94085 3.54076 6.875 3.375 6.875C3.20924 6.875 3.05027 6.94085 2.93306 7.05806C2.81585 7.17527 2.75 7.33424 2.75 7.5V8.75ZM2.75 0C2.08696 0 1.45107 0.263392 0.982233 0.732233C0.513392 1.20107 0.25 1.83696 0.25 2.5V10C0.25 10.663 0.513392 11.2989 0.982233 11.7678C1.45107 12.2366 2.08696 12.5 2.75 12.5H15.25C15.913 12.5 16.5489 12.2366 17.0178 11.7678C17.4866 11.2989 17.75 10.663 17.75 10V2.5C17.75 1.83696 17.4866 1.20107 17.0178 0.732233C16.5489 0.263392 15.913 0 15.25 0H2.75ZM15.25 1.25C15.5815 1.25 15.8995 1.3817 16.1339 1.61612C16.3683 1.85054 16.5 2.16848 16.5 2.5V10C16.5 10.3315 16.3683 10.6495 16.1339 10.8839C15.8995 11.1183 15.5815 11.25 15.25 11.25H2.75C2.41848 11.25 2.10054 11.1183 1.86612 10.8839C1.6317 10.6495 1.5 10.3315 1.5 10V2.5C1.5 2.16848 1.6317 1.85054 1.86612 1.61612C2.10054 1.3817 2.41848 1.25 2.75 1.25H15.25Z" fill="#363D59"/>
</svg>
