<svg width="14" height="14" viewBox="0 0 14 14" fill="none" xmlns="http://www.w3.org/2000/svg">
<path d="M1.1665 3.49984C1.1665 2.881 1.41234 2.28751 1.84992 1.84992C2.28751 1.41234 2.881 1.1665 3.49984 1.1665H10.4998C11.1187 1.1665 11.7122 1.41234 12.1498 1.84992C12.5873 2.28751 12.8332 2.881 12.8332 3.49984V10.4998C12.8332 11.1187 12.5873 11.7122 12.1498 12.1498C11.7122 12.5873 11.1187 12.8332 10.4998 12.8332H3.49984C2.881 12.8332 2.28751 12.5873 1.84992 12.1498C1.41234 11.7122 1.1665 11.1187 1.1665 10.4998V3.49984Z" stroke="#1A2032" stroke-linecap="round" stroke-linejoin="round"/>
<path d="M4.95833 6.41667C5.76375 6.41667 6.41667 5.76375 6.41667 4.95833C6.41667 4.15292 5.76375 3.5 4.95833 3.5C4.15292 3.5 3.5 4.15292 3.5 4.95833C3.5 5.76375 4.15292 6.41667 4.95833 6.41667Z" stroke="#1A2032" stroke-linecap="round" stroke-linejoin="round"/>
<path d="M8.4735 7.36226L3.5 12.8333H10.5776C11.1758 12.8333 11.7496 12.5957 12.1726 12.1727C12.5957 11.7496 12.8333 11.1759 12.8333 10.5776V10.5C12.8333 10.2282 12.7313 10.1238 12.5475 9.92251L10.1967 7.35876C10.0871 7.23924 9.95383 7.14388 9.80535 7.07874C9.65687 7.01361 9.49645 6.98014 9.33431 6.98047C9.17218 6.9808 9.01189 7.01492 8.86368 7.08066C8.71546 7.14639 8.58258 7.2423 8.4735 7.36226V7.36226Z" stroke="#1A2032" stroke-linecap="round" stroke-linejoin="round"/>
</svg>
