<svg width="15" height="14" viewBox="0 0 15 14" fill="none" xmlns="http://www.w3.org/2000/svg">
<path d="M7.5 9.20508C10.3807 9.20508 12.8163 9.71337 14.5 11.7528V12.8926H0.5V11.7527C2.18364 9.71254 4.61909 9.20508 7.5 9.20508Z" stroke="#1A2032"/>
<path d="M7.5 7C6.63805 7 5.8114 6.65759 5.2019 6.0481C4.59241 5.4386 4.25 4.61195 4.25 3.75C4.25 2.88805 4.59241 2.0614 5.2019 1.4519C5.8114 0.84241 6.63805 0.5 7.5 0.5C8.36195 0.5 9.1886 0.84241 9.7981 1.4519C10.4076 2.0614 10.75 2.88805 10.75 3.75C10.75 4.61195 10.4076 5.4386 9.7981 6.0481C9.1886 6.65759 8.36195 7 7.5 7Z" stroke="#1A2032"/>
</svg>
