<svg width="14" height="14" viewBox="0 0 14 14" fill="none" xmlns="http://www.w3.org/2000/svg">
<path d="M6.125 4.8125C6.125 4.69647 6.07891 4.58519 5.99686 4.50314C5.91481 4.42109 5.80353 4.375 5.6875 4.375C5.57147 4.375 5.46019 4.42109 5.37814 4.50314C5.29609 4.58519 5.25 4.69647 5.25 4.8125V9.1875C5.25 9.30353 5.29609 9.41481 5.37814 9.49686C5.46019 9.57891 5.57147 9.625 5.6875 9.625C5.80353 9.625 5.91481 9.57891 5.99686 9.49686C6.07891 9.41481 6.125 9.30353 6.125 9.1875V4.8125ZM3.5 5.25C3.61603 5.25 3.72731 5.29609 3.80936 5.37814C3.89141 5.46019 3.9375 5.57147 3.9375 5.6875V7.4375C3.9375 7.55353 3.89141 7.66481 3.80936 7.74686C3.72731 7.82891 3.61603 7.875 3.5 7.875C3.38397 7.875 3.27269 7.82891 3.19064 7.74686C3.10859 7.66481 3.0625 7.55353 3.0625 7.4375V5.6875C3.0625 5.57147 3.10859 5.46019 3.19064 5.37814C3.27269 5.29609 3.38397 5.25 3.5 5.25ZM7.875 5.25C7.99103 5.25 8.10231 5.29609 8.18436 5.37814C8.26641 5.46019 8.3125 5.57147 8.3125 5.6875V7.4375C8.3125 7.55353 8.26641 7.66481 8.18436 7.74686C8.10231 7.82891 7.99103 7.875 7.875 7.875C7.75897 7.875 7.64769 7.82891 7.56564 7.74686C7.48359 7.66481 7.4375 7.55353 7.4375 7.4375V5.6875C7.4375 5.57147 7.48359 5.46019 7.56564 5.37814C7.64769 5.29609 7.75897 5.25 7.875 5.25ZM10.0625 4.375C10.1785 4.375 10.2898 4.42109 10.3719 4.50314C10.4539 4.58519 10.5 4.69647 10.5 4.8125V9.1875C10.5 9.30353 10.4539 9.41481 10.3719 9.49686C10.2898 9.57891 10.1785 9.625 10.0625 9.625C9.94647 9.625 9.83519 9.57891 9.75314 9.49686C9.67109 9.41481 9.625 9.30353 9.625 9.1875V4.8125C9.625 4.69647 9.67109 4.58519 9.75314 4.50314C9.83519 4.42109 9.94647 4.375 10.0625 4.375ZM7 0C5.14348 0 3.36301 0.737498 2.05025 2.05025C0.737498 3.36301 0 5.14348 0 7C0 8.85652 0.737498 10.637 2.05025 11.9497C3.36301 13.2625 5.14348 14 7 14C8.85652 14 10.637 13.2625 11.9497 11.9497C13.2625 10.637 14 8.85652 14 7C14 5.14348 13.2625 3.36301 11.9497 2.05025C10.637 0.737498 8.85652 0 7 0ZM0.875 7C0.875 6.19565 1.03343 5.39918 1.34124 4.65606C1.64905 3.91294 2.10021 3.23773 2.66897 2.66897C3.23773 2.10021 3.91294 1.64905 4.65606 1.34124C5.39918 1.03343 6.19565 0.875 7 0.875C7.80435 0.875 8.60082 1.03343 9.34394 1.34124C10.0871 1.64905 10.7623 2.10021 11.331 2.66897C11.8998 3.23773 12.351 3.91294 12.6588 4.65606C12.9666 5.39918 13.125 6.19565 13.125 7C13.125 8.62445 12.4797 10.1824 11.331 11.331C10.1824 12.4797 8.62445 13.125 7 13.125C5.37555 13.125 3.81763 12.4797 2.66897 11.331C1.52031 10.1824 0.875 8.62445 0.875 7Z" fill="#1A2032"/>
</svg>
