<svg width="15" height="15" viewBox="0 0 15 15" fill="none" xmlns="http://www.w3.org/2000/svg">
<path d="M2.67871 2.67878C2.67871 2.5367 2.73515 2.40044 2.83562 2.29997C2.93608 2.19951 3.07234 2.14307 3.21443 2.14307H11.7859C11.9279 2.14307 12.0642 2.19951 12.1647 2.29997C12.2651 2.40044 12.3216 2.5367 12.3216 2.67878V4.28592C12.3216 4.428 12.2651 4.56426 12.1647 4.66473C12.0642 4.7652 11.9279 4.82164 11.7859 4.82164C11.6438 4.82164 11.5075 4.7652 11.407 4.66473C11.3066 4.56426 11.2501 4.428 11.2501 4.28592V3.21449H8.03585V11.7859H8.57157C8.71365 11.7859 8.84991 11.8424 8.95038 11.9428C9.05084 12.0433 9.10728 12.1796 9.10728 12.3216C9.10728 12.4637 9.05084 12.6 8.95038 12.7004C8.84991 12.8009 8.71365 12.8574 8.57157 12.8574H6.42871C6.28663 12.8574 6.15037 12.8009 6.0499 12.7004C5.94944 12.6 5.893 12.4637 5.893 12.3216C5.893 12.1796 5.94944 12.0433 6.0499 11.9428C6.15037 11.8424 6.28663 11.7859 6.42871 11.7859H6.96443V3.21449H3.75014V4.28592C3.75014 4.428 3.6937 4.56426 3.59323 4.66473C3.49277 4.7652 3.35651 4.82164 3.21443 4.82164C3.07234 4.82164 2.93608 4.7652 2.83562 4.66473C2.73515 4.56426 2.67871 4.428 2.67871 4.28592V2.67878Z" fill="#1A2032"/>
</svg>
