<svg width="16" height="17" viewBox="0 0 16 17" fill="none" xmlns="http://www.w3.org/2000/svg">
<rect x="1.14282" y="4.23914" width="10.2857" height="10.2857" rx="2" fill="white"/>
<path d="M2 5.81055C2 5.41272 2.15804 5.03119 2.43934 4.74989C2.72064 4.46858 3.10218 4.31055 3.5 4.31055H9.5C9.89782 4.31055 10.2794 4.46858 10.5607 4.74989C10.842 5.03119 11 5.41272 11 5.81055V11.8105C11 12.2084 10.842 12.5899 10.5607 12.8712C10.2794 13.1525 9.89782 13.3105 9.5 13.3105H3.5C3.10218 13.3105 2.72064 13.1525 2.43934 12.8712C2.15804 12.5899 2 12.2084 2 11.8105V5.81055ZM3.5 3.31055C2.83696 3.31055 2.20107 3.57394 1.73223 4.04278C1.26339 4.51162 1 5.14751 1 5.81055V11.8105C1 12.4736 1.26339 13.1095 1.73223 13.5783C2.20107 14.0472 2.83696 14.3105 3.5 14.3105H9.5C9.8283 14.3105 10.1534 14.2459 10.4567 14.1202C10.76 13.9946 11.0356 13.8105 11.2678 13.5783C11.4999 13.3462 11.6841 13.0706 11.8097 12.7673C11.9353 12.4639 12 12.1389 12 11.8105V11.3105L13.8 12.6605C13.9114 12.7441 14.0439 12.795 14.1826 12.8075C14.3214 12.82 14.4608 12.7937 14.5854 12.7314C14.71 12.6691 14.8148 12.5733 14.888 12.4548C14.9612 12.3364 15 12.1998 15 12.0605V5.56555C15 5.42626 14.9612 5.28973 14.888 5.17125C14.8148 5.05277 14.71 4.95702 14.5854 4.89473C14.4608 4.83244 14.3214 4.80607 14.1826 4.81858C14.0439 4.83109 13.9114 4.88198 13.8 4.96555L12 6.31055V5.81055C12 5.48224 11.9353 5.15715 11.8097 4.85384C11.6841 4.55052 11.4999 4.27493 11.2678 4.04278C11.0356 3.81063 10.76 3.62648 10.4567 3.50085C10.1534 3.37521 9.8283 3.31055 9.5 3.31055H3.5ZM12 7.56055L14 6.06455V11.5605L12 10.0605V7.56055Z" fill="#1A2032"/>
</svg>
