<svg width="14" height="14" viewBox="0 0 14 14" fill="none" xmlns="http://www.w3.org/2000/svg">
<path d="M8.74961 5.775C8.74961 5.90761 8.69693 6.03478 8.60316 6.12855C8.50939 6.22232 8.38222 6.275 8.24961 6.275H4.24961C4.117 6.275 3.98982 6.22232 3.89606 6.12855C3.80229 6.03478 3.74961 5.90761 3.74961 5.775C3.74961 5.64239 3.80229 5.51521 3.89606 5.42145C3.98982 5.32768 4.117 5.275 4.24961 5.275H8.24961C8.38222 5.275 8.50939 5.32768 8.60316 5.42145C8.69693 5.51521 8.74961 5.64239 8.74961 5.775ZM13.3559 12.8812C13.2603 12.9737 13.1325 13.0253 12.9996 13.0253C12.8667 13.0253 12.7389 12.9737 12.6434 12.8812L9.94336 10.175C8.80622 11.1301 7.34425 11.6094 5.86236 11.5128C4.38046 11.4162 2.99306 10.7513 1.98951 9.65664C0.985965 8.562 0.443754 7.1222 0.475967 5.63751C0.508179 4.15282 1.11233 2.73788 2.16241 1.6878C3.21249 0.637717 4.62743 0.0335696 6.11212 0.0013573C7.59681 -0.030855 9.03661 0.511356 10.1313 1.5149C11.2259 2.51845 11.8908 3.90585 11.9874 5.38775C12.084 6.86965 11.6047 8.33162 10.6496 9.46875L13.3559 12.1687C13.4497 12.2635 13.5024 12.3916 13.5024 12.525C13.5024 12.6584 13.4497 12.7865 13.3559 12.8812ZM6.24961 10.525C7.18907 10.525 8.10743 10.2464 8.88857 9.72448C9.6697 9.20254 10.2785 8.46069 10.638 7.59275C10.9976 6.7248 11.0916 5.76973 10.9083 4.84832C10.7251 3.92691 10.2727 3.08054 9.60837 2.41624C8.94407 1.75194 8.0977 1.29955 7.17629 1.11627C6.25488 0.932989 5.29981 1.02706 4.43186 1.38657C3.56391 1.74609 2.82206 2.35491 2.30013 3.13604C1.77819 3.91717 1.49961 4.83554 1.49961 5.775C1.50126 7.03427 2.00224 8.24149 2.89268 9.13193C3.78312 10.0224 4.99034 10.5233 6.24961 10.525Z" fill="#363D59"/>
</svg>
