<svg width="10" height="10" viewBox="0 0 10 10" fill="none" xmlns="http://www.w3.org/2000/svg">
<path d="M1.02284 3.30828C1.14004 3.19111 1.29898 3.12529 1.46471 3.12529C1.63044 3.12529 1.78938 3.19111 1.90659 3.30828L5.00034 6.40203L8.09409 3.30828C8.21196 3.19443 8.36984 3.13143 8.53371 3.13286C8.69759 3.13428 8.85434 3.20001 8.97022 3.31589C9.0861 3.43177 9.15183 3.58853 9.15326 3.7524C9.15468 3.91628 9.09168 4.07415 8.97784 4.19203L5.44221 7.72765C5.32501 7.84482 5.16606 7.91064 5.00034 7.91064C4.83461 7.91064 4.67567 7.84482 4.55846 7.72765L1.02284 4.19203C0.905666 4.07482 0.839844 3.91588 0.839844 3.75015C0.839844 3.58442 0.905666 3.42548 1.02284 3.30828Z" fill="#7B61FF"/>
</svg>
