<svg width="16" height="16" viewBox="0 0 16 16" fill="none" xmlns="http://www.w3.org/2000/svg">
<path fill-rule="evenodd" clip-rule="evenodd" d="M11.0476 12.5714V6.4762C11.0476 6.07206 10.8871 5.68448 10.6013 5.39871C10.3156 5.11294 9.92797 4.95239 9.52383 4.95239H3.42859C3.02446 4.95239 2.63687 5.11294 2.3511 5.39871C2.06533 5.68448 1.90479 6.07206 1.90479 6.4762V12.5714C1.90479 12.9756 2.06533 13.3632 2.3511 13.6489C2.63687 13.9347 3.02446 14.0952 3.42859 14.0952H9.52383C9.92797 14.0952 10.3156 13.9347 10.6013 13.6489C10.8871 13.3632 11.0476 12.9756 11.0476 12.5714Z" stroke="#666666" stroke-linecap="round" stroke-linejoin="round"/>
<path d="M11.0476 11.0476H12.5714C12.9756 11.0476 13.3632 10.887 13.6489 10.6012C13.9347 10.3155 14.0953 9.92788 14.0953 9.52374V3.43079C14.0953 3.02665 13.9347 2.63907 13.6489 2.3533C13.3632 2.06753 12.9756 1.90698 12.5714 1.90698H12.5692L6.47392 1.91765C6.07018 1.91825 5.68318 2.07907 5.3979 2.36477C5.11262 2.65047 4.95239 3.03772 4.9524 3.44146V4.95232M6.4762 7.23803V11.8095M8.76192 9.52374H4.19049" stroke="#666666" stroke-linecap="round" stroke-linejoin="round"/>
</svg>
