<svg width="30" height="30" viewBox="0 0 30 30" fill="none" xmlns="http://www.w3.org/2000/svg">
<path d="M15 0C6.71652 0 0 6.71652 0 15C0 23.2835 6.71652 30 15 30C23.2835 30 30 23.2835 30 15C30 6.71652 23.2835 0 15 0ZM19.8248 15.231L12.5123 20.5513C12.4722 20.5801 12.4249 20.5973 12.3757 20.601C12.3265 20.6047 12.2772 20.5948 12.2332 20.5723C12.1893 20.5498 12.1524 20.5156 12.1266 20.4736C12.1008 20.4315 12.0871 20.3831 12.0871 20.3337V9.69978C12.0869 9.65031 12.1004 9.60177 12.1262 9.55953C12.1519 9.51728 12.1888 9.48299 12.2329 9.46046C12.2769 9.43792 12.3263 9.42802 12.3756 9.43184C12.425 9.43567 12.4722 9.45308 12.5123 9.48214L19.8248 14.7991C19.8593 14.8235 19.8875 14.8559 19.907 14.8935C19.9264 14.9311 19.9366 14.9728 19.9366 15.0151C19.9366 15.0574 19.9264 15.0991 19.907 15.1367C19.8875 15.1742 19.8593 15.2066 19.8248 15.231Z" fill="white"/>
</svg>
