<svg width="19" height="17" viewBox="0 0 19 17" fill="none" xmlns="http://www.w3.org/2000/svg">
<path d="M3.17782 17L13.8222 17C15.3011 17 16.5 15.8011 16.5 14.3222L16.5 3.67782C16.5 2.1989 15.3011 1 13.8222 1L3.17783 0.999999C1.6989 0.999999 0.500001 2.1989 0.500001 3.67782L0.5 14.3222C0.5 15.8011 1.6989 17 3.17782 17Z" fill="#7B61FF"/>
<g filter="url(#filter0_f_1095_8060)">
<path d="M9.37748 9.32042L13.4545 12.8217C13.8829 13.1899 14.5524 12.8886 14.5524 12.3196L14.5524 5.31707C14.5524 4.74803 13.8829 4.44008 13.4545 4.81498L9.37748 8.31623C9.06954 8.58401 9.06954 9.05933 9.37748 9.32711L9.37748 9.32042Z" fill="#ADADAD" fill-opacity="0.5"/>
</g>
<path d="M9.37748 9.32042L13.4545 12.8217C13.8829 13.1899 14.5524 12.8886 14.5524 12.3196L14.5524 5.31707C14.5524 4.74803 13.8829 4.44008 13.4545 4.81498L9.37748 8.31623C9.06954 8.58401 9.06954 9.05933 9.37748 9.32711L9.37748 9.32042Z" fill="white"/>
<path d="M7.61645 9.32042L3.53946 12.8217C3.11101 13.1899 2.44155 12.8886 2.44155 12.3196L2.44155 5.31707C2.44155 4.74803 3.11101 4.44008 3.53946 4.81498L7.61645 8.31623C7.9244 8.58401 7.9244 9.05933 7.61645 9.32711L7.61645 9.32042Z" fill="white"/>
<defs>
<filter id="filter0_f_1095_8060" x="5.14655" y="0.650635" width="13.4058" height="16.3325" filterUnits="userSpaceOnUse" color-interpolation-filters="sRGB">
<feFlood flood-opacity="0" result="BackgroundImageFix"/>
<feBlend mode="normal" in="SourceGraphic" in2="BackgroundImageFix" result="shape"/>
<feGaussianBlur stdDeviation="2" result="effect1_foregroundBlur_1095_8060"/>
</filter>
</defs>
</svg>
