<svg width="16" height="14" viewBox="0 0 16 14" fill="none" xmlns="http://www.w3.org/2000/svg">
<path d="M12.9978 4.98278L7.99983 8.65777L3.00183 4.98278C2.91253 4.91698 2.79266 4.88015 2.66783 4.88015C2.543 4.88015 2.42313 4.91698 2.33383 4.98278C2.29059 5.01473 2.25624 5.05287 2.23279 5.09497C2.20934 5.13706 2.19727 5.18227 2.19727 5.22793C2.19727 5.27359 2.20934 5.31879 2.23279 5.36088C2.25624 5.40298 2.29059 5.44112 2.33383 5.47308L7.65083 9.38342C7.74421 9.45207 7.86944 9.4905 7.99983 9.4905C8.13022 9.4905 8.25546 9.45207 8.34883 9.38342L13.6658 5.47383C13.7094 5.44185 13.744 5.40362 13.7676 5.36138C13.7912 5.31915 13.8034 5.27377 13.8034 5.22793C13.8034 5.18208 13.7912 5.13671 13.7676 5.09447C13.744 5.05224 13.7094 5.014 13.6658 4.98202C13.5765 4.91623 13.4567 4.87939 13.3318 4.87939C13.207 4.87939 13.0871 4.91623 12.9978 4.98202V4.98278Z" fill="#1A2032"/>
</svg>
