<svg width="12" height="12" viewBox="0 0 12 12" fill="none" xmlns="http://www.w3.org/2000/svg">
<path d="M4.5 4.875C4.5 4.66789 4.66789 4.5 4.875 4.5V4.5C5.08211 4.5 5.25 4.66789 5.25 4.875V8.625C5.25 8.83211 5.08211 9 4.875 9V9C4.66789 9 4.5 8.83211 4.5 8.625V4.875ZM6.75 4.875C6.75 4.66789 6.91789 4.5 7.125 4.5V4.5C7.33211 4.5 7.5 4.66789 7.5 4.875V8.625C7.5 8.83211 7.33211 9 7.125 9V9C6.91789 9 6.75 8.83211 6.75 8.625V4.875Z" fill="#FF6060"/>
<path d="M1.875 2.25C1.66789 2.25 1.5 2.41789 1.5 2.625V2.625C1.5 2.83211 1.66789 3 1.875 3H2.25V10.5C2.25 10.6989 2.32902 10.8897 2.46967 11.0303C2.61032 11.171 2.80109 11.25 3 11.25H9C9.19891 11.25 9.38968 11.171 9.53033 11.0303C9.67098 10.8897 9.75 10.6989 9.75 10.5V3H10.125C10.3321 3 10.5 2.83211 10.5 2.625V2.625C10.5 2.41789 10.3321 2.25 10.125 2.25H1.875ZM4 10.5C3.44772 10.5 3 10.0523 3 9.5V3H9V9.5C9 10.0523 8.55228 10.5 8 10.5H4ZM4.5 1.125C4.5 0.917893 4.66789 0.75 4.875 0.75H7.125C7.33211 0.75 7.5 0.917893 7.5 1.125V1.125C7.5 1.33211 7.33211 1.5 7.125 1.5H4.875C4.66789 1.5 4.5 1.33211 4.5 1.125V1.125Z" fill="#FF6060"/>
</svg>
