<svg width="12" height="12" viewBox="0 0 12 12" fill="none" xmlns="http://www.w3.org/2000/svg">
<path d="M11.5 4.97C11.4948 4.92407 11.4847 4.87882 11.47 4.835V4.79C11.446 4.73859 11.4139 4.69133 11.375 4.65L8.375 1.65C8.33367 1.61111 8.28641 1.57904 8.235 1.555H8.19C8.13921 1.52587 8.08311 1.50717 8.025 1.5H4C3.60218 1.5 3.22064 1.65804 2.93934 1.93934C2.65804 2.22064 2.5 2.60218 2.5 3V3.5H2C1.60218 3.5 1.22064 3.65804 0.93934 3.93934C0.658035 4.22064 0.5 4.60218 0.5 5V9C0.5 9.39782 0.658035 9.77936 0.93934 10.0607C1.22064 10.342 1.60218 10.5 2 10.5H8C8.39782 10.5 8.77936 10.342 9.06066 10.0607C9.34196 9.77936 9.5 9.39782 9.5 9V8.5H10C10.3978 8.5 10.7794 8.34196 11.0607 8.06066C11.342 7.77936 11.5 7.39782 11.5 7V5C11.5 5 11.5 5 11.5 4.97ZM8.5 3.205L9.795 4.5H9C8.86739 4.5 8.74021 4.44732 8.64645 4.35355C8.55268 4.25979 8.5 4.13261 8.5 4V3.205ZM8.5 9C8.5 9.13261 8.44732 9.25979 8.35355 9.35355C8.25979 9.44732 8.13261 9.5 8 9.5H2C1.86739 9.5 1.74021 9.44732 1.64645 9.35355C1.55268 9.25979 1.5 9.13261 1.5 9V5C1.5 4.86739 1.55268 4.74021 1.64645 4.64645C1.74021 4.55268 1.86739 4.5 2 4.5H2.5V7C2.5 7.39782 2.65804 7.77936 2.93934 8.06066C3.22064 8.34196 3.60218 8.5 4 8.5H8.5V9ZM10.5 7C10.5 7.13261 10.4473 7.25979 10.3536 7.35355C10.2598 7.44732 10.1326 7.5 10 7.5H4C3.86739 7.5 3.74021 7.44732 3.64645 7.35355C3.55268 7.25979 3.5 7.13261 3.5 7V3C3.5 2.86739 3.55268 2.74021 3.64645 2.64645C3.74021 2.55268 3.86739 2.5 4 2.5H7.5V4C7.5 4.39782 7.65804 4.77936 7.93934 5.06066C8.22064 5.34196 8.60218 5.5 9 5.5H10.5V7Z" fill="white"/>
</svg>
