<svg width="16" height="16" viewBox="0 0 16 16" fill="none" xmlns="http://www.w3.org/2000/svg">
<path d="M7.1273 13.8182C4.07468 13.8182 1.60005 11.2133 1.60005 8.00004C1.60005 4.78676 4.07468 2.18188 7.1273 2.18188C10.1799 2.18188 12.6545 4.78676 12.6545 8.00004C12.6545 11.2133 10.1799 13.8182 7.1273 13.8182Z" stroke="#9194A4" stroke-linecap="round" stroke-linejoin="round"/>
<path d="M8.58183 6.1383C8.21153 5.83803 7.7495 5.67375 7.27275 5.67285C6.06781 5.67285 5.09094 6.7143 5.09094 8.00011C5.09094 9.28592 6.06781 10.3274 7.27275 10.3274C7.7638 10.3274 8.21704 10.154 8.58183 9.86192" stroke="#9194A4" stroke-linecap="round" stroke-linejoin="round"/>
<path d="M6.83643 2.18188C9.35743 2.18188 14.4 2.7637 14.4 8.00004C14.4 13.2364 9.35743 13.8182 6.83643 13.8182" stroke="#9194A4"/>
</svg>
