<svg width="18" height="18" viewBox="0 0 18 18" fill="none" xmlns="http://www.w3.org/2000/svg">
<path d="M9.22114 6.7609C8.7595 6.71531 8.29505 6.81352 7.89138 7.04209C7.48771 7.27066 7.16455 7.61841 6.96616 8.03773C6.76777 8.45706 6.70383 8.92746 6.78311 9.38452C6.86238 9.84159 7.081 10.263 7.40902 10.591C7.73704 10.919 8.15843 11.1376 8.61549 11.2169C9.07256 11.2962 9.54295 11.2322 9.96228 11.0339C10.3816 10.8355 10.7294 10.5123 10.9579 10.1086C11.1865 9.70496 11.2847 9.24051 11.2391 8.77887C11.1871 8.26136 10.9578 7.77774 10.5901 7.40996C10.2223 7.04218 9.73865 6.81288 9.22114 6.7609V6.7609ZM14.6387 9C14.6373 9.24457 14.6193 9.48876 14.5849 9.7309L16.1743 10.9775C16.2436 11.0349 16.2902 11.115 16.306 11.2035C16.3217 11.292 16.3056 11.3832 16.2605 11.4609L14.7568 14.0625C14.7112 14.1395 14.6398 14.1979 14.5553 14.2274C14.4708 14.2569 14.3786 14.2557 14.2949 14.2239L12.7164 13.5882C12.6293 13.5536 12.535 13.5411 12.442 13.5518C12.3489 13.5625 12.2599 13.5962 12.1831 13.6498C11.9422 13.8157 11.689 13.963 11.4258 14.0906C11.343 14.1308 11.2715 14.1908 11.2174 14.2653C11.1633 14.3397 11.1284 14.4263 11.1157 14.5174L10.8791 16.2011C10.8636 16.29 10.8176 16.3707 10.7492 16.4295C10.6807 16.4883 10.5939 16.5215 10.5036 16.5234H7.49638C7.40762 16.5219 7.32204 16.4902 7.25373 16.4335C7.18541 16.3768 7.13844 16.2985 7.12056 16.2116L6.88431 14.5304C6.87104 14.4383 6.83522 14.3509 6.78002 14.2759C6.72482 14.201 6.65195 14.1408 6.5679 14.1008C6.30501 13.9739 6.05272 13.8261 5.81345 13.6589C5.73684 13.6056 5.64818 13.5722 5.55544 13.5617C5.46271 13.5512 5.36882 13.564 5.28224 13.5988L3.70407 14.2341C3.62044 14.2659 3.52825 14.2672 3.44374 14.2378C3.35924 14.2083 3.28784 14.15 3.24212 14.073L1.73849 11.4715C1.69328 11.3938 1.67713 11.3025 1.6929 11.214C1.70867 11.1255 1.75535 11.0454 1.82462 10.9881L3.16794 9.9334C3.24154 9.87498 3.29938 9.7991 3.33621 9.71266C3.37305 9.62622 3.38771 9.53195 3.37888 9.4384C3.36622 9.2918 3.35849 9.14555 3.35849 8.99895C3.35849 8.85234 3.36587 8.7082 3.37888 8.56477C3.38675 8.47179 3.37136 8.37831 3.33411 8.29276C3.29686 8.20721 3.23891 8.13227 3.16548 8.07469L1.82286 7.02C1.75472 6.96238 1.70902 6.88261 1.69379 6.79468C1.67855 6.70674 1.69475 6.61625 1.73954 6.53906L3.24318 3.9375C3.28884 3.8605 3.36022 3.8021 3.44473 3.77258C3.52924 3.74306 3.62146 3.74432 3.70513 3.77613L5.28364 4.41176C5.37069 4.44642 5.46498 4.45894 5.55806 4.4482C5.65113 4.43746 5.74009 4.4038 5.81697 4.35023C6.05787 4.18434 6.31102 4.03696 6.57423 3.90937C6.65698 3.86916 6.72855 3.80918 6.78263 3.73475C6.83671 3.66031 6.87163 3.57371 6.88431 3.48258L7.12091 1.79895C7.13645 1.71003 7.18239 1.62927 7.25087 1.57047C7.31936 1.51167 7.40613 1.47847 7.49638 1.47656H10.5036C10.5924 1.4781 10.678 1.50982 10.7463 1.5665C10.8146 1.62319 10.8616 1.70145 10.8795 1.7884L11.1157 3.46957C11.129 3.5617 11.1648 3.64913 11.22 3.72408C11.2752 3.79903 11.3481 3.85918 11.4321 3.89918C11.695 4.02608 11.9473 4.17386 12.1866 4.34109C12.2632 4.3944 12.3518 4.4278 12.4446 4.43829C12.5373 4.44879 12.6312 4.43604 12.7178 4.40121L14.2959 3.76594C14.3796 3.73409 14.4718 3.73278 14.5563 3.76223C14.6408 3.79169 14.7122 3.85002 14.7579 3.92695L16.2615 6.52852C16.3067 6.60624 16.3229 6.69749 16.3071 6.78601C16.2914 6.87453 16.2447 6.95459 16.1754 7.01191L14.8321 8.0666C14.7582 8.12483 14.7 8.20062 14.6628 8.28708C14.6257 8.37353 14.6108 8.4679 14.6194 8.5616C14.631 8.70715 14.6387 8.8534 14.6387 9Z" stroke="#1A2032" stroke-linecap="round" stroke-linejoin="round"/>
</svg>
