<svg width="16" height="16" viewBox="0 0 16 16" fill="none" xmlns="http://www.w3.org/2000/svg">
<path d="M7.1273 13.8179C4.07468 13.8179 1.60005 11.2131 1.60005 7.99979C1.60005 4.78652 4.07468 2.18164 7.1273 2.18164C10.1799 2.18164 12.6545 4.78652 12.6545 7.99979C12.6545 11.2131 10.1799 13.8179 7.1273 13.8179Z" stroke="#FFE815" stroke-linecap="round" stroke-linejoin="round"/>
<path d="M8.58196 6.13782C8.21166 5.83754 7.74962 5.67326 7.27287 5.67236C6.06793 5.67236 5.09106 6.71381 5.09106 7.99962C5.09106 9.28544 6.06793 10.3269 7.27287 10.3269C7.76392 10.3269 8.21716 10.1535 8.58196 9.86143" stroke="#FFE815" stroke-linecap="round" stroke-linejoin="round"/>
<path d="M6.83643 2.18164C9.35743 2.18164 14.4 2.76346 14.4 7.99979C14.4 13.2361 9.35743 13.8179 6.83643 13.8179" stroke="#FFE815"/>
</svg>
