<svg width="14" height="14" viewBox="0 0 14 14" fill="none" xmlns="http://www.w3.org/2000/svg">
<rect width="14" height="14" fill="#7B61FF"/>
<path d="M5.33594 2.80859C5.65625 2.44922 6.16797 2.26953 6.87109 2.26953C6.9375 2.26953 7.00586 2.27148 7.07617 2.27539C7.14648 2.2793 7.22461 2.28516 7.31055 2.29297L7.10547 3.25391C7 3.24609 6.92188 3.24219 6.87109 3.24219C6.82422 3.23828 6.7793 3.23633 6.73633 3.23633C6.41602 3.23633 6.20703 3.32031 6.10938 3.48828C6.01172 3.65234 5.89062 4.07422 5.74609 4.75391H6.78906L6.61328 5.58594H5.55859L4.41016 11H3.36719L4.51562 5.58594H3.64258L3.81836 4.75391H4.69141L4.90234 3.76953C5.01172 3.33203 5.15625 3.01172 5.33594 2.80859ZM7.17578 4.72461H8.54102L9.51367 6.93359L11.4414 4.72461L12.7188 4.75391L9.95898 7.7832L11.4883 11H10.1406L9.08008 8.64453L7.07031 11H5.73438L8.62305 7.7832L7.17578 4.72461Z" fill="white"/>
</svg>
