<svg width="11" height="11" viewBox="0 0 11 11" fill="none" xmlns="http://www.w3.org/2000/svg">
<path d="M7.33839 2.06387L3.98889 5.5L7.33839 8.93612C7.39836 8.99751 7.43193 9.07992 7.43193 9.16574C7.43193 9.25156 7.39836 9.33398 7.33839 9.39537C7.30927 9.42509 7.2745 9.44871 7.23614 9.46483C7.19777 9.48095 7.15657 9.48926 7.11496 9.48926C7.07334 9.48926 7.03214 9.48095 6.99377 9.46483C6.95541 9.44871 6.92064 9.42509 6.89152 9.39537L3.32752 5.73993C3.26495 5.67574 3.22993 5.58964 3.22993 5.5C3.22993 5.41035 3.26495 5.32425 3.32752 5.26006L6.89083 1.60462C6.91998 1.57469 6.95483 1.55089 6.99332 1.53465C7.03182 1.5184 7.07317 1.51003 7.11496 1.51003C7.15674 1.51003 7.1981 1.5184 7.23659 1.53465C7.27508 1.55089 7.30993 1.57469 7.33908 1.60462C7.39905 1.66601 7.43262 1.74843 7.43262 1.83425C7.43262 1.92007 7.39905 2.00248 7.33908 2.06387L7.33839 2.06387Z" fill="black"/>
</svg>
