<svg width="20" height="20" viewBox="0 0 20 20" fill="none" xmlns="http://www.w3.org/2000/svg">
<path d="M2.5 15.8333V4.16667C2.5 3.72464 2.67559 3.30072 2.98816 2.98816C3.30072 2.67559 3.72464 2.5 4.16667 2.5H13.4767C13.9187 2.50009 14.3425 2.67575 14.655 2.98833L17.0117 5.345C17.3242 5.65749 17.4999 6.08134 17.5 6.52333V15.8333C17.5 16.2754 17.3244 16.6993 17.0118 17.0118C16.6993 17.3244 16.2754 17.5 15.8333 17.5H4.16667C3.72464 17.5 3.30072 17.3244 2.98816 17.0118C2.67559 16.6993 2.5 16.2754 2.5 15.8333Z" stroke="#363D59" stroke-width="1.3"/>
<path d="M7.16667 7.5H12.8333C12.9659 7.5 13.0931 7.44732 13.1869 7.35355C13.2807 7.25979 13.3333 7.13261 13.3333 7V3C13.3333 2.86739 13.2807 2.74021 13.1869 2.64645C13.0931 2.55268 12.9659 2.5 12.8333 2.5H7.16667C7.03406 2.5 6.90688 2.55268 6.81311 2.64645C6.71934 2.74021 6.66667 2.86739 6.66667 3V7C6.66667 7.13261 6.71934 7.25979 6.81311 7.35355C6.90688 7.44732 7.03406 7.5 7.16667 7.5ZM5 11.3333V17.5H15V11.3333C15 11.2007 14.9473 11.0735 14.8536 10.9798C14.7598 10.886 14.6326 10.8333 14.5 10.8333H5.5C5.36739 10.8333 5.24021 10.886 5.14645 10.9798C5.05268 11.0735 5 11.2007 5 11.3333Z" stroke="#363D59" stroke-width="1.3"/>
</svg>
