<svg width="15" height="15" viewBox="0 0 15 15" fill="none" xmlns="http://www.w3.org/2000/svg">
<g clip-path="url(#clip0_1323_13063)">
<path fill-rule="evenodd" clip-rule="evenodd" d="M1.7668 7.21491C1.7668 7.09888 1.81289 6.9876 1.89494 6.90555C1.97698 6.8235 2.08826 6.77741 2.2043 6.77741H12.5232L9.76955 4.02466C9.72887 3.98398 9.6966 3.93569 9.67459 3.88254C9.65257 3.8294 9.64124 3.77243 9.64124 3.71491C9.64124 3.65738 9.65257 3.60042 9.67459 3.54727C9.6966 3.49413 9.72887 3.44583 9.76955 3.40516C9.81022 3.36448 9.85851 3.33221 9.91166 3.3102C9.96481 3.28819 10.0218 3.27686 10.0793 3.27686C10.1368 3.27686 10.1938 3.28819 10.2469 3.3102C10.3001 3.33221 10.3484 3.36448 10.389 3.40516L13.889 6.90516C13.9298 6.9458 13.9621 6.99408 13.9842 7.04723C14.0062 7.10038 14.0176 7.15736 14.0176 7.21491C14.0176 7.27245 14.0062 7.32944 13.9842 7.38259C13.9621 7.43574 13.9298 7.48402 13.889 7.52466L10.389 11.0247C10.3484 11.0653 10.3001 11.0976 10.2469 11.1196C10.1938 11.1416 10.1368 11.153 10.0793 11.153C10.0218 11.153 9.96481 11.1416 9.91166 11.1196C9.85851 11.0976 9.81022 11.0653 9.76955 11.0247C9.72887 10.984 9.6966 10.9357 9.67459 10.8825C9.65257 10.8294 9.64124 10.7724 9.64124 10.7149C9.64124 10.6574 9.65257 10.6004 9.67459 10.5473C9.6966 10.4941 9.72887 10.4458 9.76955 10.4052L12.5232 7.65241H2.2043C2.08826 7.65241 1.97698 7.60631 1.89494 7.52427C1.81289 7.44222 1.7668 7.33094 1.7668 7.21491Z" fill="#1A2032"/>
</g>
<defs>
<clipPath id="clip0_1323_13063">
<rect width="14" height="14" fill="white" transform="matrix(-1 0 0 1 14.8916 0.214844)"/>
</clipPath>
</defs>
</svg>
