<svg width="25" height="24" viewBox="0 0 25 24" fill="none" xmlns="http://www.w3.org/2000/svg">
<path d="M12.4431 2V8C12.4431 8.53043 12.6538 9.03914 13.0289 9.41421C13.404 9.78929 13.9127 10 14.4431 10H20.4431V20C20.4431 20.5304 20.2324 21.0391 19.8573 21.4142C19.4823 21.7893 18.9735 22 18.4431 22H6.44311C5.91268 22 5.40397 21.7893 5.0289 21.4142C4.65383 21.0391 4.44312 20.5304 4.44312 20V4C4.44312 3.46957 4.65383 2.96086 5.0289 2.58579C5.40397 2.21071 5.91268 2 6.44311 2H12.4431ZM13.9431 2.5V8C13.9431 8.13261 13.9958 8.25979 14.0896 8.35355C14.1833 8.44732 14.3105 8.5 14.4431 8.5H19.9431L13.9431 2.5Z" fill="white"/>
</svg>
