<svg width="22" height="22" viewBox="0 0 22 22" fill="none" xmlns="http://www.w3.org/2000/svg">
<path d="M13.7497 20.2263V15.6429C13.7497 14.9136 13.4599 14.2141 12.9442 13.6984C12.4285 13.1827 11.729 12.8929 10.9997 12.8929C10.2703 12.8929 9.57086 13.1827 9.05513 13.6984C8.53941 14.2141 8.24967 14.9136 8.24967 15.6429V20.2263H3.66634C3.18011 20.2263 2.7138 20.0331 2.36998 19.6893C2.02616 19.3455 1.83301 18.8792 1.83301 18.393V8.43062C1.833 8.11403 1.91499 7.80283 2.07097 7.52733C2.22695 7.25183 2.45162 7.02142 2.72309 6.85853L10.0564 2.45853C10.3414 2.28757 10.6674 2.19727 10.9997 2.19727C11.332 2.19727 11.658 2.28757 11.9429 2.45853L19.2763 6.85853C19.5477 7.02142 19.7724 7.25183 19.9284 7.52733C20.0844 7.80283 20.1663 8.11403 20.1663 8.43062V18.393C20.1663 18.8792 19.9732 19.3455 19.6294 19.6893C19.2856 20.0331 18.8192 20.2263 18.333 20.2263H13.7497Z" fill="#44505F"/>
</svg>
