<svg width="23" height="22" viewBox="0 0 23 22" fill="none" xmlns="http://www.w3.org/2000/svg">
<path d="M14.193 20.2263V15.6429C14.193 14.9136 13.9033 14.2141 13.3876 13.6984C12.8719 13.1827 12.1724 12.8929 11.443 12.8929C10.7137 12.8929 10.0142 13.1827 9.49849 13.6984C8.98277 14.2141 8.69303 14.9136 8.69303 15.6429V20.2263H4.1097C3.62347 20.2263 3.15715 20.0331 2.81334 19.6893C2.46952 19.3455 2.27637 18.8792 2.27637 18.393V8.43062C2.27636 8.11403 2.35835 7.80283 2.51433 7.52733C2.67031 7.25183 2.89498 7.02142 3.16645 6.85853L10.4998 2.45853C10.7847 2.28757 11.1108 2.19727 11.443 2.19727C11.7753 2.19727 12.1014 2.28757 12.3863 2.45853L19.7196 6.85853C19.9911 7.02142 20.2158 7.25183 20.3717 7.52733C20.5277 7.80283 20.6097 8.11403 20.6097 8.43062V18.393C20.6097 18.8792 20.4165 19.3455 20.0727 19.6893C19.7289 20.0331 19.2626 20.2263 18.7764 20.2263H14.193Z" fill="white"/>
</svg>
