<svg width="28" height="28" viewBox="0 0 28 28" fill="none" xmlns="http://www.w3.org/2000/svg">
<path d="M23.3138 0H4.68619C2.09808 0 0 2.09808 0 4.68619V23.3138C0 25.9019 2.09808 28 4.68619 28H23.3138C25.9019 28 28 25.9019 28 23.3138V4.68619C28 2.09808 25.9019 0 23.3138 0Z" fill="#C6B9F4"/>
<g filter="url(#filter0_f_892_2952)">
<ellipse cx="14.0586" cy="9.37231" rx="3.51465" ry="3.51464" fill="#7B61FF" fill-opacity="0.3"/>
</g>
<g filter="url(#filter1_f_892_2952)">
<path d="M7.0293 19.0583C7.0293 16.2969 9.26787 14.0583 12.0293 14.0583H16.0879C18.8493 14.0583 21.0879 16.2969 21.0879 19.0583V19.2592C21.0879 20.916 19.7447 22.2592 18.0879 22.2592H10.0293C8.37244 22.2592 7.0293 20.916 7.0293 19.2592V19.0583Z" fill="#7B61FF" fill-opacity="0.3"/>
</g>
<ellipse cx="14.0586" cy="9.37231" rx="3.51465" ry="3.51464" fill="white"/>
<path d="M7.0293 19.0583C7.0293 16.2969 9.26787 14.0583 12.0293 14.0583H16.0879C18.8493 14.0583 21.0879 16.2969 21.0879 19.0583V19.2592C21.0879 20.916 19.7447 22.2592 18.0879 22.2592H10.0293C8.37244 22.2592 7.0293 20.916 7.0293 19.2592V19.0583Z" fill="white"/>
<defs>
<filter id="filter0_f_892_2952" x="6.54395" y="1.85767" width="15.0293" height="15.0293" filterUnits="userSpaceOnUse" color-interpolation-filters="sRGB">
<feFlood flood-opacity="0" result="BackgroundImageFix"/>
<feBlend mode="normal" in="SourceGraphic" in2="BackgroundImageFix" result="shape"/>
<feGaussianBlur stdDeviation="2" result="effect1_foregroundBlur_892_2952"/>
</filter>
<filter id="filter1_f_892_2952" x="3.0293" y="10.0583" width="22.0586" height="16.2009" filterUnits="userSpaceOnUse" color-interpolation-filters="sRGB">
<feFlood flood-opacity="0" result="BackgroundImageFix"/>
<feBlend mode="normal" in="SourceGraphic" in2="BackgroundImageFix" result="shape"/>
<feGaussianBlur stdDeviation="2" result="effect1_foregroundBlur_892_2952"/>
</filter>
</defs>
</svg>
