<svg width="28" height="27" viewBox="0 0 28 27" fill="none" xmlns="http://www.w3.org/2000/svg">
<path d="M23.3138 0H4.68619C2.09808 0 0 2.01382 0 4.49799V22.3775C0 24.8617 2.09808 26.8755 4.68619 26.8755H23.3138C25.9019 26.8755 28 24.8617 28 22.3775V4.49799C28 2.01382 25.9019 0 23.3138 0Z" fill="#C6B9F4"/>
<path d="M15.463 8.01646C15.463 7.24016 14.8074 6.61084 13.9986 6.61084C13.1898 6.61084 12.5342 7.24016 12.5342 8.01646V18.8566C12.5342 19.6329 13.1898 20.2622 13.9986 20.2622C14.8074 20.2622 15.463 19.6329 15.463 18.8566V8.01646Z" fill="white"/>
<path d="M19.6576 9.4111C20.4664 9.4111 21.1221 8.78178 21.1221 8.00548C21.1221 7.22917 20.4664 6.59985 19.6576 6.59985L8.36392 6.59985C7.55513 6.59985 6.89948 7.22917 6.89948 8.00548C6.89948 8.78178 7.55513 9.4111 8.36392 9.4111H19.6576Z" fill="white"/>
</svg>
