<svg width="28" height="28" viewBox="0 0 28 28" fill="none" xmlns="http://www.w3.org/2000/svg">
<path d="M23.3138 0H4.68619C2.09808 0 0 2.09808 0 4.68619V23.3138C0 25.9019 2.09808 28 4.68619 28H23.3138C25.9019 28 28 25.9019 28 23.3138V4.68619C28 2.09808 25.9019 0 23.3138 0Z" fill="#D5D6D9"/>
<path d="M15.3293 8.45159C15.3293 7.6561 14.6839 7.01123 13.8878 7.01123C13.0917 7.01123 12.4463 7.6561 12.4463 8.45159V19.5596C12.4463 20.3551 13.0917 21 13.8878 21C14.6839 21 15.3293 20.3551 15.3293 19.5596V8.45159Z" fill="white"/>
<path d="M19.4579 9.88071C20.254 9.88071 20.8994 9.23584 20.8994 8.44036C20.8994 7.64487 20.254 7 19.4579 7L8.34093 7C7.5448 7 6.89941 7.64487 6.89941 8.44036C6.89941 9.23584 7.5448 9.88071 8.34093 9.88071H19.4579Z" fill="white"/>
</svg>
