<svg width="30" height="30" viewBox="0 0 30 30" fill="none" xmlns="http://www.w3.org/2000/svg">
<path d="M24.3138 1H5.68619C3.09808 1 1 3.09808 1 5.68619V24.3138C1 26.9019 3.09808 29 5.68619 29H24.3138C26.9019 29 29 26.9019 29 24.3138V5.68619C29 3.09808 26.9019 1 24.3138 1Z" fill="#C6B9F4"/>
<g filter="url(#filter0_f_892_3016)">
<path fill-rule="evenodd" clip-rule="evenodd" d="M4.92021 10.0445C4.46269 9.58696 4.46269 8.84517 4.92021 8.38765L8.45023 4.85763C8.90775 4.40011 9.64953 4.40011 10.107 4.85763C10.5646 5.31515 10.5646 6.05693 10.107 6.51445L6.57703 10.0445C6.11951 10.502 5.37772 10.502 4.92021 10.0445Z" fill="#7B61FF" fill-opacity="0.3"/>
<path fill-rule="evenodd" clip-rule="evenodd" d="M4.87145 16.3281C4.41605 15.8684 4.41948 15.1267 4.8791 14.6713L14.7942 4.84729C15.2538 4.39189 15.9956 4.39531 16.451 4.85494C16.9064 5.31456 16.903 6.05634 16.4434 6.51174L6.52825 16.3357C6.06863 16.7911 5.32685 16.7877 4.87145 16.3281Z" fill="#7B61FF" fill-opacity="0.3"/>
<path fill-rule="evenodd" clip-rule="evenodd" d="M4.97294 22.6192C4.51542 22.1617 4.51542 21.4199 4.97294 20.9624L21.0778 4.85754C21.5353 4.40002 22.2771 4.40002 22.7346 4.85754C23.1921 5.31506 23.1921 6.05684 22.7346 6.51436L6.62976 22.6192C6.17224 23.0767 5.43046 23.0767 4.97294 22.6192Z" fill="#7B61FF" fill-opacity="0.3"/>
<path fill-rule="evenodd" clip-rule="evenodd" d="M9.06193 24.7123C8.60596 24.2532 8.60847 23.5115 9.06754 23.0555L23.1763 9.04197C23.6353 8.586 24.3771 8.58851 24.8331 9.04757C25.2891 9.50664 25.2866 10.2484 24.8275 10.7044L10.7187 24.7179C10.2597 25.1739 9.5179 25.1714 9.06193 24.7123Z" fill="#7B61FF" fill-opacity="0.3"/>
<path fill-rule="evenodd" clip-rule="evenodd" d="M15.4524 24.7151C14.9949 24.2576 14.9949 23.5158 15.4524 23.0583L23.1741 15.3367C23.6316 14.8792 24.3734 14.8792 24.8309 15.3367C25.2884 15.7942 25.2884 16.536 24.8309 16.9935L17.1093 24.7151C16.6517 25.1726 15.91 25.1726 15.4524 24.7151Z" fill="#7B61FF" fill-opacity="0.3"/>
<path fill-rule="evenodd" clip-rule="evenodd" d="M21.701 24.7012C21.2513 24.236 21.2638 23.4943 21.729 23.0446L23.2408 21.5832C23.706 21.1335 24.4476 21.1461 24.8973 21.6113C25.3471 22.0765 25.3345 22.8181 24.8693 23.2678L23.3576 24.7292C22.8924 25.179 22.1507 25.1664 21.701 24.7012Z" fill="#7B61FF" fill-opacity="0.3"/>
</g>
<path fill-rule="evenodd" clip-rule="evenodd" d="M4.92021 10.0445C4.46269 9.58696 4.46269 8.84517 4.92021 8.38765L8.45023 4.85763C8.90775 4.40011 9.64953 4.40011 10.107 4.85763C10.5646 5.31515 10.5646 6.05693 10.107 6.51445L6.57703 10.0445C6.11951 10.502 5.37772 10.502 4.92021 10.0445Z" fill="white"/>
<path fill-rule="evenodd" clip-rule="evenodd" d="M4.87145 16.3281C4.41605 15.8684 4.41948 15.1267 4.8791 14.6713L14.7942 4.84729C15.2538 4.39189 15.9956 4.39531 16.451 4.85494C16.9064 5.31456 16.903 6.05634 16.4434 6.51174L6.52825 16.3357C6.06863 16.7911 5.32685 16.7877 4.87145 16.3281Z" fill="white"/>
<path fill-rule="evenodd" clip-rule="evenodd" d="M4.97294 22.6192C4.51542 22.1617 4.51542 21.4199 4.97294 20.9624L21.0778 4.85754C21.5353 4.40002 22.2771 4.40002 22.7346 4.85754C23.1921 5.31506 23.1921 6.05684 22.7346 6.51436L6.62976 22.6192C6.17224 23.0767 5.43046 23.0767 4.97294 22.6192Z" fill="white"/>
<path fill-rule="evenodd" clip-rule="evenodd" d="M9.06193 24.7123C8.60596 24.2532 8.60847 23.5115 9.06754 23.0555L23.1763 9.04197C23.6353 8.586 24.3771 8.58851 24.8331 9.04757C25.2891 9.50664 25.2866 10.2484 24.8275 10.7044L10.7187 24.7179C10.2597 25.1739 9.5179 25.1714 9.06193 24.7123Z" fill="white"/>
<path fill-rule="evenodd" clip-rule="evenodd" d="M15.4524 24.7151C14.9949 24.2576 14.9949 23.5158 15.4524 23.0583L23.1741 15.3367C23.6316 14.8792 24.3734 14.8792 24.8309 15.3367C25.2884 15.7942 25.2884 16.536 24.8309 16.9935L17.1093 24.7151C16.6517 25.1726 15.91 25.1726 15.4524 24.7151Z" fill="white"/>
<path fill-rule="evenodd" clip-rule="evenodd" d="M21.701 24.7012C21.2513 24.236 21.2638 23.4943 21.729 23.0446L23.2408 21.5832C23.706 21.1335 24.4476 21.1461 24.8973 21.6113C25.3471 22.0765 25.3345 22.8181 24.8693 23.2678L23.3576 24.7292C22.8924 25.179 22.1507 25.1664 21.701 24.7012Z" fill="white"/>
<defs>
<filter id="filter0_f_892_3016" x="0.532227" y="0.508057" width="28.6943" height="28.5505" filterUnits="userSpaceOnUse" color-interpolation-filters="sRGB">
<feFlood flood-opacity="0" result="BackgroundImageFix"/>
<feBlend mode="normal" in="SourceGraphic" in2="BackgroundImageFix" result="shape"/>
<feGaussianBlur stdDeviation="2" result="effect1_foregroundBlur_892_3016"/>
</filter>
</defs>
</svg>
