<svg width="28" height="27" viewBox="0 0 28 27" fill="none" xmlns="http://www.w3.org/2000/svg">
<path d="M23.3138 0H4.68619C2.09808 0 0 2.01382 0 4.49799V22.3775C0 24.8617 2.09808 26.8755 4.68619 26.8755H23.3138C25.9019 26.8755 28 24.8617 28 22.3775V4.49799C28 2.01382 25.9019 0 23.3138 0Z" fill="#80B8FA"/>
<path d="M15.463 8.01597C15.463 7.23967 14.8074 6.61035 13.9986 6.61035C13.1898 6.61035 12.5342 7.23967 12.5342 8.01597V18.8561C12.5342 19.6324 13.1898 20.2618 13.9986 20.2618C14.8074 20.2618 15.463 19.6324 15.463 18.8561V8.01597Z" fill="white"/>
<path d="M19.6576 9.41085C20.4664 9.41085 21.1221 8.78154 21.1221 8.00523C21.1221 7.22893 20.4664 6.59961 19.6576 6.59961L8.36392 6.59961C7.55513 6.59961 6.89948 7.22893 6.89948 8.00523C6.89948 8.78154 7.55513 9.41085 8.36392 9.41085H19.6576Z" fill="white"/>
</svg>
