<svg width="17" height="17" viewBox="0 0 17 17" fill="none" xmlns="http://www.w3.org/2000/svg">
<path d="M9.15767 9.84133L5.78423 3.47297C5.7394 3.38663 5.67172 3.31426 5.58858 3.26375C5.50544 3.21324 5.41003 3.18652 5.31274 3.18652C5.21546 3.18652 5.12005 3.21324 5.03691 3.26375C4.95376 3.31426 4.88609 3.38663 4.84126 3.47297L1.46782 9.84133L0.0600098 12.5042C-0.00348872 12.6296 -0.0154165 12.7748 0.0267778 12.9088C0.068972 13.0428 0.161938 13.155 0.285791 13.2214C0.411139 13.2849 0.556358 13.2968 0.690386 13.2546C0.824415 13.2124 0.936612 13.1195 1.00298 12.9956L2.25806 10.6249H8.36743L9.62251 12.9956C9.66687 13.0823 9.73446 13.1549 9.81773 13.2053C9.90099 13.2557 9.99665 13.282 10.094 13.2812C10.1854 13.2813 10.2752 13.2578 10.3548 13.213C10.4345 13.1682 10.5012 13.1036 10.5486 13.0255C10.596 12.9474 10.6225 12.8584 10.6254 12.7671C10.6284 12.6758 10.6077 12.5852 10.5655 12.5042L9.15767 9.84133ZM2.82251 9.56242L5.31274 4.85422L7.80298 9.56242H2.82251ZM13.8127 6.30188C13.08 6.29473 12.374 6.57621 11.8471 7.08547C11.7934 7.13334 11.75 7.19161 11.7195 7.25675C11.689 7.3219 11.6721 7.39256 11.6697 7.46445C11.6673 7.53634 11.6796 7.60796 11.7057 7.67498C11.7318 7.742 11.7713 7.80301 11.8217 7.85432C11.8721 7.90563 11.9324 7.94617 11.9989 7.97348C12.0655 8.00079 12.1369 8.0143 12.2088 8.0132C12.2807 8.01209 12.3517 7.99639 12.4174 7.96705C12.483 7.93771 12.5421 7.89534 12.5909 7.8425C12.9194 7.52855 13.3584 7.35675 13.8127 7.36438C14.6893 7.36438 15.4065 7.96203 15.4065 8.6925V9.17063C14.9345 8.85657 14.3797 8.69013 13.8127 8.6925C12.3452 8.6925 11.1565 9.76164 11.1565 11.0831C11.1565 12.4046 12.3452 13.4738 13.8127 13.4738C14.3991 13.4762 14.9719 13.2976 15.453 12.9624C15.4935 13.0573 15.5611 13.1382 15.6473 13.1949C15.7335 13.2516 15.8345 13.2816 15.9377 13.2812C16.0786 13.2812 16.2138 13.2252 16.3134 13.1256C16.413 13.0259 16.469 12.8908 16.469 12.7499V8.6925C16.469 7.37102 15.2803 6.30188 13.8127 6.30188V6.30188ZM13.8127 12.4113C12.9362 12.4113 12.219 11.8136 12.219 11.0831C12.219 10.3527 12.9362 9.755 13.8127 9.755C14.6893 9.755 15.4065 10.3527 15.4065 11.0831C15.4065 11.8136 14.6893 12.4113 13.8127 12.4113Z" fill="#ACAFC0"/>
</svg>
