<svg width="28" height="28" viewBox="0 0 28 28" fill="none" xmlns="http://www.w3.org/2000/svg">
<path d="M23.3138 0H4.68619C2.09808 0 0 2.09808 0 4.68619V23.3138C0 25.9019 2.09808 28 4.68619 28H23.3138C25.9019 28 28 25.9019 28 23.3138V4.68619C28 2.09808 25.9019 0 23.3138 0Z" fill="#D5D6D9"/>
<g filter="url(#filter0_f_754_1301)">
<ellipse cx="14.0586" cy="9.37255" rx="3.51465" ry="3.51464" fill="#ADADAD" fill-opacity="0.5"/>
</g>
<g filter="url(#filter1_f_754_1301)">
<path d="M7.0293 19.0586C7.0293 16.2972 9.26787 14.0586 12.0293 14.0586H16.0879C18.8493 14.0586 21.0879 16.2972 21.0879 19.0586V19.2594C21.0879 20.9163 19.7447 22.2594 18.0879 22.2594H10.0293C8.37244 22.2594 7.0293 20.9163 7.0293 19.2594V19.0586Z" fill="#ADADAD" fill-opacity="0.5"/>
</g>
<ellipse cx="14.0586" cy="9.37255" rx="3.51465" ry="3.51464" fill="white"/>
<path d="M7.0293 19.0586C7.0293 16.2972 9.26787 14.0586 12.0293 14.0586H16.0879C18.8493 14.0586 21.0879 16.2972 21.0879 19.0586V19.2594C21.0879 20.9163 19.7447 22.2594 18.0879 22.2594H10.0293C8.37244 22.2594 7.0293 20.9163 7.0293 19.2594V19.0586Z" fill="white"/>
<defs>
<filter id="filter0_f_754_1301" x="6.54395" y="1.85791" width="15.0293" height="15.0293" filterUnits="userSpaceOnUse" color-interpolation-filters="sRGB">
<feFlood flood-opacity="0" result="BackgroundImageFix"/>
<feBlend mode="normal" in="SourceGraphic" in2="BackgroundImageFix" result="shape"/>
<feGaussianBlur stdDeviation="2" result="effect1_foregroundBlur_754_1301"/>
</filter>
<filter id="filter1_f_754_1301" x="3.0293" y="10.0586" width="22.0586" height="16.2007" filterUnits="userSpaceOnUse" color-interpolation-filters="sRGB">
<feFlood flood-opacity="0" result="BackgroundImageFix"/>
<feBlend mode="normal" in="SourceGraphic" in2="BackgroundImageFix" result="shape"/>
<feGaussianBlur stdDeviation="2" result="effect1_foregroundBlur_754_1301"/>
</filter>
</defs>
</svg>
