<svg width="30" height="30" viewBox="0 0 30 30" fill="none" xmlns="http://www.w3.org/2000/svg">
<path d="M24.3138 1H5.68619C3.09808 1 1 3.09808 1 5.68619V24.3138C1 26.9019 3.09808 29 5.68619 29H24.3138C26.9019 29 29 26.9019 29 24.3138V5.68619C29 3.09808 26.9019 1 24.3138 1Z" fill="#D5D6D9"/>
<g filter="url(#filter0_f_754_1312)">
<path fill-rule="evenodd" clip-rule="evenodd" d="M4.92021 10.0442C4.46269 9.58671 4.46269 8.84493 4.92021 8.38741L8.45023 4.85739C8.90775 4.39987 9.64953 4.39987 10.107 4.85739C10.5646 5.31491 10.5646 6.05669 10.107 6.51421L6.57703 10.0442C6.11951 10.5017 5.37772 10.5017 4.92021 10.0442Z" fill="#ADADAD" fill-opacity="0.5"/>
<path fill-rule="evenodd" clip-rule="evenodd" d="M4.87145 16.3278C4.41605 15.8682 4.41948 15.1264 4.8791 14.671L14.7942 4.84705C15.2538 4.39164 15.9956 4.39507 16.451 4.85469C16.9064 5.31432 16.903 6.0561 16.4434 6.5115L6.52825 16.3355C6.06863 16.7909 5.32685 16.7875 4.87145 16.3278Z" fill="#ADADAD" fill-opacity="0.5"/>
<path fill-rule="evenodd" clip-rule="evenodd" d="M4.97294 22.6189C4.51542 22.1614 4.51542 21.4196 4.97294 20.9621L21.0778 4.8573C21.5353 4.39978 22.2771 4.39978 22.7346 4.8573C23.1921 5.31481 23.1921 6.0566 22.7346 6.51411L6.62976 22.6189C6.17224 23.0765 5.43046 23.0765 4.97294 22.6189Z" fill="#ADADAD" fill-opacity="0.5"/>
<path fill-rule="evenodd" clip-rule="evenodd" d="M9.06193 24.7121C8.60596 24.253 8.60847 23.5112 9.06754 23.0553L23.1763 9.04172C23.6353 8.58576 24.3771 8.58827 24.8331 9.04733C25.2891 9.50639 25.2866 10.2482 24.8275 10.7041L10.7187 24.7177C10.2597 25.1736 9.5179 25.1711 9.06193 24.7121Z" fill="#ADADAD" fill-opacity="0.5"/>
<path fill-rule="evenodd" clip-rule="evenodd" d="M15.4524 24.7146C14.9949 24.2571 14.9949 23.5153 15.4524 23.0578L23.1741 15.3362C23.6316 14.8787 24.3734 14.8787 24.8309 15.3362C25.2884 15.7937 25.2884 16.5355 24.8309 16.993L17.1093 24.7146C16.6517 25.1722 15.91 25.1722 15.4524 24.7146Z" fill="#ADADAD" fill-opacity="0.5"/>
<path fill-rule="evenodd" clip-rule="evenodd" d="M21.701 24.7012C21.2513 24.236 21.2638 23.4943 21.729 23.0446L23.2408 21.5832C23.706 21.1335 24.4476 21.1461 24.8973 21.6113C25.3471 22.0765 25.3345 22.8181 24.8693 23.2678L23.3576 24.7292C22.8924 25.179 22.1507 25.1664 21.701 24.7012Z" fill="#ADADAD" fill-opacity="0.5"/>
</g>
<path fill-rule="evenodd" clip-rule="evenodd" d="M4.92021 10.0442C4.46269 9.58671 4.46269 8.84493 4.92021 8.38741L8.45023 4.85739C8.90775 4.39987 9.64953 4.39987 10.107 4.85739C10.5646 5.31491 10.5646 6.05669 10.107 6.51421L6.57703 10.0442C6.11951 10.5017 5.37772 10.5017 4.92021 10.0442Z" fill="white"/>
<path fill-rule="evenodd" clip-rule="evenodd" d="M4.87145 16.3278C4.41605 15.8682 4.41948 15.1264 4.8791 14.671L14.7942 4.84705C15.2538 4.39164 15.9956 4.39507 16.451 4.85469C16.9064 5.31432 16.903 6.0561 16.4434 6.5115L6.52825 16.3355C6.06863 16.7909 5.32685 16.7875 4.87145 16.3278Z" fill="white"/>
<path fill-rule="evenodd" clip-rule="evenodd" d="M4.97294 22.6189C4.51542 22.1614 4.51542 21.4196 4.97294 20.9621L21.0778 4.8573C21.5353 4.39978 22.2771 4.39978 22.7346 4.8573C23.1921 5.31481 23.1921 6.0566 22.7346 6.51411L6.62976 22.6189C6.17224 23.0765 5.43046 23.0765 4.97294 22.6189Z" fill="white"/>
<path fill-rule="evenodd" clip-rule="evenodd" d="M9.06193 24.7121C8.60596 24.253 8.60847 23.5112 9.06754 23.0553L23.1763 9.04172C23.6353 8.58576 24.3771 8.58827 24.8331 9.04733C25.2891 9.50639 25.2866 10.2482 24.8275 10.7041L10.7187 24.7177C10.2597 25.1736 9.5179 25.1711 9.06193 24.7121Z" fill="white"/>
<path fill-rule="evenodd" clip-rule="evenodd" d="M15.4524 24.7146C14.9949 24.2571 14.9949 23.5153 15.4524 23.0578L23.1741 15.3362C23.6316 14.8787 24.3734 14.8787 24.8309 15.3362C25.2884 15.7937 25.2884 16.5355 24.8309 16.993L17.1093 24.7146C16.6517 25.1722 15.91 25.1722 15.4524 24.7146Z" fill="white"/>
<path fill-rule="evenodd" clip-rule="evenodd" d="M21.701 24.7012C21.2513 24.236 21.2638 23.4943 21.729 23.0446L23.2408 21.5832C23.706 21.1335 24.4476 21.1461 24.8973 21.6113C25.3471 22.0765 25.3345 22.8181 24.8693 23.2678L23.3576 24.7292C22.8924 25.179 22.1507 25.1664 21.701 24.7012Z" fill="white"/>
<defs>
<filter id="filter0_f_754_1312" x="0.532227" y="0.507812" width="28.6943" height="28.5508" filterUnits="userSpaceOnUse" color-interpolation-filters="sRGB">
<feFlood flood-opacity="0" result="BackgroundImageFix"/>
<feBlend mode="normal" in="SourceGraphic" in2="BackgroundImageFix" result="shape"/>
<feGaussianBlur stdDeviation="2" result="effect1_foregroundBlur_754_1312"/>
</filter>
</defs>
</svg>
