<svg width="18" height="18" viewBox="0 0 18 18" fill="none" xmlns="http://www.w3.org/2000/svg">
<path d="M9 16.5C4.85775 16.5 1.5 13.1423 1.5 9C1.5 4.85775 4.85775 1.5 9 1.5C13.1423 1.5 16.5 4.85775 16.5 9C16.5 13.1423 13.1423 16.5 9 16.5ZM9 15C10.5913 15 12.1174 14.3679 13.2426 13.2426C14.3679 12.1174 15 10.5913 15 9C15 7.4087 14.3679 5.88258 13.2426 4.75736C12.1174 3.63214 10.5913 3 9 3C7.4087 3 5.88258 3.63214 4.75736 4.75736C3.63214 5.88258 3 7.4087 3 9C3 10.5913 3.63214 12.1174 4.75736 13.2426C5.88258 14.3679 7.4087 15 9 15ZM5.32474 10.495C5.24244 10.0891 5.58579 9.75 6 9.75C6.41421 9.75 6.73831 10.0948 6.87385 10.4862C6.98424 10.805 7.16595 11.0979 7.40901 11.341C7.83097 11.7629 8.40326 12 9 12C9.59674 12 10.169 11.7629 10.591 11.341C10.8341 11.0979 11.0158 10.805 11.1261 10.4862C11.2617 10.0948 11.5858 9.75 12 9.75C12.4142 9.75 12.7576 10.0891 12.6753 10.495C12.5299 11.212 12.1767 11.8767 11.6517 12.4017C10.9484 13.1049 9.99456 13.5 9 13.5C8.00544 13.5 7.05161 13.1049 6.34835 12.4017C5.82335 11.8767 5.47009 11.212 5.32474 10.495ZM6 8.25C5.70163 8.25 5.41548 8.13147 5.2045 7.9205C4.99353 7.70952 4.875 7.42337 4.875 7.125C4.875 6.82663 4.99353 6.54048 5.2045 6.3295C5.41548 6.11853 5.70163 6 6 6C6.29837 6 6.58452 6.11853 6.7955 6.3295C7.00647 6.54048 7.125 6.82663 7.125 7.125C7.125 7.42337 7.00647 7.70952 6.7955 7.9205C6.58452 8.13147 6.29837 8.25 6 8.25ZM12 8.25C11.7016 8.25 11.4155 8.13147 11.2045 7.9205C10.9935 7.70952 10.875 7.42337 10.875 7.125C10.875 6.82663 10.9935 6.54048 11.2045 6.3295C11.4155 6.11853 11.7016 6 12 6C12.2984 6 12.5845 6.11853 12.7955 6.3295C13.0065 6.54048 13.125 6.82663 13.125 7.125C13.125 7.42337 13.0065 7.70952 12.7955 7.9205C12.5845 8.13147 12.2984 8.25 12 8.25Z" fill="#1A2032"/>
</svg>
